<svg xmlns="http://www.w3.org/2000/svg" width="29.08" height="29.08" viewBox="0 0 29.08 29.08">
  <g id="noun-wallet-4485603" transform="translate(-105.005 -35)">
    <path id="Path_6582" data-name="Path 6582" d="M133.046,41.751H109.419a2.337,2.337,0,1,1,0-4.674H126.3a1.039,1.039,0,1,0,0-2.077H109.419a4.419,4.419,0,0,0-4.414,4.414V57.848a6.238,6.238,0,0,0,6.231,6.231h21.81a1.038,1.038,0,0,0,1.039-1.039V42.789a1.038,1.038,0,0,0-1.039-1.039ZM111.236,62a4.158,4.158,0,0,1-4.154-4.154v-14.7a4.378,4.378,0,0,0,2.337.684h22.589v4.911H125.8a4.176,4.176,0,1,0,0,8.352h6.209V62Zm20.771-6.989H125.8a2.1,2.1,0,1,1,0-4.2h6.209Z" fill="#105dcf"/>
    <path id="Path_6583" data-name="Path 6583" d="M161.88,92.919a1.039,1.039,0,0,0,1.039,1.039h20.252a1.039,1.039,0,0,0,0-2.077H162.919A1.039,1.039,0,0,0,161.88,92.919Z" transform="translate(-53.5 -53.504)" fill="#105dcf"/>
  </g>
</svg>
