<svg xmlns="http://www.w3.org/2000/svg" width="191.789" height="163.799" viewBox="0 0 191.789 163.799">
  <g id="Group_537" data-name="Group 537" transform="translate(-1029.119 -4901.861) rotate(-6)">
    <path id="Path_17" data-name="Path 17" d="M687,5001.755c-16.3,42.362-58.723,85.883-74.84,95.576-8.441,5.078-17.949,9.564-27.743,8.508s-19.316-9.738-17.892-19.486a10.1,10.1,0,0,1,3.705-6.751c3.873-2.842,9.7-1.351,13.028,2.109s4.713,8.328,5.652,13.04c4.884,24.482-46.381,33.988-79.768,34.169" fill="none" stroke="#131313" stroke-miterlimit="10" stroke-width="3"/>
    <path id="Path_18" data-name="Path 18" d="M596.357,5161.063c-7.595,2.6-11.978,5.315-19.574,7.918a1.372,1.372,0,0,1-2.1-.913l-7.415-16.427" transform="matrix(0.259, 0.966, -0.966, 0.259, 5349.747, 3232.368)" fill="none" stroke="#131313" stroke-miterlimit="10" stroke-width="3"/>
  </g>
</svg>
