<svg id="Group_534" data-name="Group 534" xmlns="http://www.w3.org/2000/svg" xmlns:xlink="http://www.w3.org/1999/xlink" width="2088" height="1174" viewBox="0 0 2088 1174">
  <defs>
    <radialGradient id="radial-gradient" cx="0.33" cy="-0.069" r="1.817" gradientTransform="translate(0.214) scale(0.571 1)" gradientUnits="objectBoundingBox">
      <stop offset="0.254" stop-color="#fff"/>
      <stop offset="0.605" stop-color="#fbfbfb"/>
      <stop offset="0.878" stop-color="#f2f2f2"/>
      <stop offset="1" stop-color="#ebebeb"/>
    </radialGradient>
    <clipPath id="clip-path">
      <rect id="Rectangle_181" data-name="Rectangle 181" width="2088" height="1174" fill="url(#radial-gradient)"/>
    </clipPath>
  </defs>
  <g id="Group_533" data-name="Group 533">
    <rect id="Rectangle_180" data-name="Rectangle 180" width="2088" height="1174" fill="url(#radial-gradient)"/>
    <g id="Group_532" data-name="Group 532" clip-path="url(#clip-path)">
      <g id="Group_438" data-name="Group 438" transform="translate(633.538 102.435)">
        <path id="Path_5353" data-name="Path 5353" d="M505.766,125.919a18.142,18.142,0,1,1-18.142-17.861A18,18,0,0,1,505.766,125.919Z" transform="translate(841.572 230.143)" fill="#9a9da3"/>
        <path id="Path_5354" data-name="Path 5354" d="M526.961,127.231a8.877,8.877,0,1,1-8.876-8.739A8.808,8.808,0,0,1,526.961,127.231Z" transform="translate(966.377 262.257)" fill="#9a9da3"/>
        <path id="Path_5355" data-name="Path 5355" d="M430.168,216.522a5.872,5.872,0,1,1-5.869-5.782A5.827,5.827,0,0,1,430.168,216.522Z" transform="translate(681.137 546.175)" fill="#9a9da3"/>
        <ellipse id="Ellipse_298" data-name="Ellipse 298" cx="8.962" cy="8.823" rx="8.962" ry="8.823" transform="translate(1501.459 542.785)" fill="#9a9da3"/>
        <ellipse id="Ellipse_299" data-name="Ellipse 299" cx="11.935" cy="11.75" rx="11.935" ry="11.75" transform="translate(1281.922)" fill="#9a9da3"/>
        <ellipse id="Ellipse_300" data-name="Ellipse 300" cx="5.32" cy="5.238" rx="5.32" ry="5.238" transform="translate(410.712 962.371)" fill="#9a9da3"/>
        <path id="Path_5356" data-name="Path 5356" d="M340.6,237.294A11.6,11.6,0,1,1,329,225.876,11.512,11.512,0,0,1,340.6,237.294Z" transform="translate(363.733 592.76)" fill="#9a9da3"/>
        <ellipse id="Ellipse_301" data-name="Ellipse 301" cx="16.749" cy="16.489" rx="16.749" ry="16.489" transform="translate(1460.598 201.008)" fill="#dbdbdb"/>
        <path id="Path_5357" data-name="Path 5357" d="M416.241,116.736a13.676,13.676,0,1,1-13.673-13.465A13.569,13.569,0,0,1,416.241,116.736Z" transform="translate(588.346 215.41)" fill="#dbdbdb"/>
        <path id="Path_5358" data-name="Path 5358" d="M401.523,289.7a5.667,5.667,0,1,1-5.666-5.579A5.622,5.622,0,0,1,401.523,289.7Z" transform="translate(592.427 772.034)" fill="#dbdbdb"/>
        <path id="Path_5359" data-name="Path 5359" d="M249.541,294.746a12.956,12.956,0,1,1-12.956-12.755A12.857,12.857,0,0,1,249.541,294.746Z" transform="translate(69.108 765.47)" fill="#dbdbdb"/>
        <ellipse id="Ellipse_302" data-name="Ellipse 302" cx="10.697" cy="10.532" rx="10.697" ry="10.532" transform="translate(1376.072 962.4)" fill="#dbdbdb"/>
        <path id="Path_5360" data-name="Path 5360" d="M386.2,178.127a7.869,7.869,0,1,1-7.87-7.748A7.808,7.808,0,0,1,386.2,178.127Z" transform="translate(530.455 421.953)" fill="#dbdbdb"/>
        <path id="Path_5361" data-name="Path 5361" d="M166.724,288.812a6.885,6.885,0,1,1-6.884-6.777A6.833,6.833,0,0,1,166.724,288.812Z" transform="translate(-152.956 765.605)" fill="#dbdbdb"/>
        <path id="Path_5362" data-name="Path 5362" d="M372.313,140.383a5.628,5.628,0,1,1-5.625-5.542A5.582,5.582,0,0,1,372.313,140.383Z" transform="translate(500.895 312.575)" fill="#005eff"/>
        <ellipse id="Ellipse_303" data-name="Ellipse 303" cx="16.577" cy="16.32" rx="16.577" ry="16.32" transform="translate(1288.355 546.208)" fill="#005eff"/>
        <path id="Path_5363" data-name="Path 5363" d="M348.388,183.11a15.427,15.427,0,1,1-15.425-15.186A15.308,15.308,0,0,1,348.388,183.11Z" transform="translate(364.157 414.397)" fill="#005eff"/>
        <ellipse id="Ellipse_304" data-name="Ellipse 304" cx="9.316" cy="9.171" rx="9.316" ry="9.171" transform="translate(1149.383 318.916)" fill="#005eff"/>
        <path id="Path_5365" data-name="Path 5365" d="M459.952,276.72a17.409,17.409,0,1,1-17.409-17.135A17.273,17.273,0,0,1,459.952,276.72Z" transform="translate(702.232 696.509)" fill="#005eff"/>
        <path id="Path_5366" data-name="Path 5366" d="M540.133,219.771a11.284,11.284,0,1,1-11.283-11.108A11.2,11.2,0,0,1,540.133,219.771Z" transform="translate(992.641 539.783)" fill="#005eff"/>
        <path id="Path_5367" data-name="Path 5367" d="M494.329,220.3a8.546,8.546,0,1,1-8.545-8.412A8.479,8.479,0,0,1,494.329,220.3Z" transform="translate(865.929 549.699)" fill="#0071d6"/>
        <ellipse id="Ellipse_305" data-name="Ellipse 305" cx="10.149" cy="9.992" rx="10.149" ry="9.992" transform="translate(868.552 747.007)" fill="#0071d6"/>
        <ellipse id="Ellipse_307" data-name="Ellipse 307" cx="6.431" cy="6.332" rx="6.431" ry="6.332" transform="translate(805.184 1023.9)" fill="#0071d6"/>
        <path id="Path_5368" data-name="Path 5368" d="M505.912,43.636a6.642,6.642,0,1,1-6.64-6.541A6.59,6.59,0,0,1,505.912,43.636Z" transform="translate(914.283 11.735)" fill="#0071d6"/>
        <ellipse id="Ellipse_308" data-name="Ellipse 308" cx="8.585" cy="8.452" rx="8.585" ry="8.452" transform="translate(1000.881 159.17)" fill="#0071d6"/>
        <path id="Path_5369" data-name="Path 5369" d="M306.615,292.531a16.226,16.226,0,1,1-16.224-15.973A16.1,16.1,0,0,1,306.615,292.531Z" transform="translate(227.884 748.748)" fill="#0071d6"/>
        <ellipse id="Ellipse_309" data-name="Ellipse 309" cx="5.908" cy="5.816" rx="5.908" ry="5.816" transform="translate(496.99 795.305)" fill="#009bf4"/>
        <path id="Path_5370" data-name="Path 5370" d="M289.484,182.036a7.989,7.989,0,1,1-7.986-7.862A7.927,7.927,0,0,1,289.484,182.036Z" transform="translate(225.817 433.633)" fill="#009bf4"/>
        <ellipse id="Ellipse_310" data-name="Ellipse 310" cx="10.55" cy="10.386" rx="10.55" ry="10.386" transform="translate(733.93 370.425)" fill="#009bf4"/>
        <path id="Path_5371" data-name="Path 5371" d="M400.522,256.274a12.589,12.589,0,1,1-12.587-12.392A12.493,12.493,0,0,1,400.522,256.274Z" transform="translate(545.788 648.179)" fill="#009bf4"/>
        <path id="Path_5372" data-name="Path 5372" d="M456.158,70.2a4.642,4.642,0,1,1-4.643-4.567A4.608,4.608,0,0,1,456.158,70.2Z" transform="translate(770.529 99.559)" fill="#009bf4"/>
        <path id="Path_5373" data-name="Path 5373" d="M323.927,279.147a9.693,9.693,0,1,1-9.692-9.538A9.62,9.62,0,0,1,323.927,279.147Z" transform="translate(323.324 727.361)" fill="#009bf4"/>
        <ellipse id="Ellipse_311" data-name="Ellipse 311" cx="9.208" cy="9.066" rx="9.208" ry="9.066" transform="translate(1092.668 556.739)" fill="#009bf4"/>
      </g>
      <g id="Group_531" data-name="Group 531" transform="translate(718.031 -95.71)" style="mix-blend-mode: multiply;isolation: isolate">
        <g id="Group_439" data-name="Group 439" transform="translate(1190.536)">
          <path id="Path_5374" data-name="Path 5374" d="M656.332,175.125l-.1-.008L461.209,139.363a.506.506,0,0,1-.24-.885L653.524-23.348a.514.514,0,0,1,.547-.077.517.517,0,0,1,.307.457l2.473,197.58a.515.515,0,0,1-.518.514ZM462.468,138.56,655.806,174,653.354-21.868Z" transform="translate(-460.789 23.471)" fill="#c7c7c7"/>
        </g>
        <g id="Group_440" data-name="Group 440" transform="translate(1002.452 242.739)">
          <path id="Path_5375" data-name="Path 5375" d="M415.9,186.623a.519.519,0,0,1-.414-.2.5.5,0,0,1-.054-.522l72.24-149.552a.518.518,0,0,1,.414-.285.508.508,0,0,1,.464.2l95.5,123.919a.5.5,0,0,1,.07.5.527.527,0,0,1-.4.314L415.976,186.619ZM488.241,37.54,416.783,185.465,582.7,160.113Z" transform="translate(-415.379 -36.056)" fill="#c7c7c7"/>
        </g>
        <g id="Group_441" data-name="Group 441" transform="translate(1170.19 161.826)">
          <path id="Path_5376" data-name="Path 5376" d="M456.4,222.065a.529.529,0,0,1-.364-.147.5.5,0,0,1-.153-.412L476.224,16.676a.518.518,0,0,1,.924-.261L622.336,202.2a.488.488,0,0,1,.066.506.5.5,0,0,1-.414.31L456.455,222.061Zm20.73-204.011L456.972,220.976l163.989-18.868Z" transform="translate(-455.876 -16.214)" fill="#c7c7c7"/>
        </g>
        <g id="Group_442" data-name="Group 442" transform="translate(1074.69 161.825)">
          <path id="Path_5377" data-name="Path 5377" d="M528.84,222.065a.527.527,0,0,1-.414-.2l-95.5-123.924a.507.507,0,0,1-.1-.383.514.514,0,0,1,.215-.338L548.883,16.305a.523.523,0,0,1,.559-.02.512.512,0,0,1,.257.489L529.354,221.6a.514.514,0,0,1-.373.44A.437.437,0,0,1,528.84,222.065ZM434.072,97.746,528.451,220.21,548.556,17.785Z" transform="translate(-432.82 -16.214)" fill="#c7c7c7"/>
        </g>
        <g id="Group_443" data-name="Group 443" transform="translate(1335.724 197.577)">
          <path id="Path_5378" data-name="Path 5378" d="M625.1,189.1l-.054,0L496.3,176.034a.515.515,0,0,1-.439-.665l49.84-150.038a.519.519,0,0,1,.957-.061l78.9,163.1a.5.5,0,0,1-.045.51A.512.512,0,0,1,625.1,189.1ZM497.049,175.088l127.187,12.9L546.285,26.861Z" transform="translate(-495.841 -24.981)" fill="#c7c7c7"/>
        </g>
        <g id="Group_444" data-name="Group 444" transform="translate(1190.537 161.826)">
          <path id="Path_5379" data-name="Path 5379" d="M606.492,203.022a.524.524,0,0,1-.41-.2L460.894,17.035a.511.511,0,0,1,.505-.811l195.028,35.75a.508.508,0,0,1,.394.661L606.985,202.671a.513.513,0,0,1-.4.343ZM462.542,17.467,606.306,201.436,655.653,52.87Z" transform="translate(-460.789 -16.214)" fill="#c7c7c7"/>
        </g>
        <g id="Group_445" data-name="Group 445" transform="translate(918.31 392.289)">
          <path id="Path_5380" data-name="Path 5380" d="M539.186,150.3a.443.443,0,0,1-.1-.008L395.477,121.18a.508.508,0,0,1-.153-.942L479.467,72.8a.521.521,0,0,1,.667.135L539.6,149.48a.51.51,0,0,1-.414.82Zm-142.16-29.845,140.91,28.561L479.587,73.9Z" transform="translate(-395.064 -72.731)" fill="#c7c7c7"/>
        </g>
        <g id="Group_446" data-name="Group 446" transform="translate(1061.915 366.658)">
          <path id="Path_5381" data-name="Path 5381" d="M430.252,169.645a.52.52,0,0,1-.464-.285.5.5,0,0,1,.108-.591L538.17,66.588a.518.518,0,0,1,.468-.131.528.528,0,0,1,.373.31l33.351,83.354a.509.509,0,0,1-.033.444.545.545,0,0,1-.377.249l-141.63,18.827Zm108.08-101.8L431.759,168.422l139.4-18.533Z" transform="translate(-429.735 -66.445)" fill="#c7c7c7"/>
        </g>
        <g id="Group_447" data-name="Group 447" transform="translate(1002.453 366.659)">
          <path id="Path_5382" data-name="Path 5382" d="M475.358,169.644h-.037a.516.516,0,0,1-.373-.2L415.486,92.892a.5.5,0,0,1-.07-.5.513.513,0,0,1,.4-.314L583.554,66.452a.522.522,0,0,1,.547.277.51.51,0,0,1-.108.6L475.718,169.506A.522.522,0,0,1,475.358,169.644ZM416.836,92.958l58.584,75.414L582.088,67.708Z" transform="translate(-415.379 -66.445)" fill="#c7c7c7"/>
        </g>
        <g id="Group_448" data-name="Group 448" transform="translate(1203.544 347.613)">
          <path id="Path_5383" data-name="Path 5383" d="M512.937,185.039a.5.5,0,0,1-.2-.041l-48.49-19.847a.5.5,0,0,1-.124-.869l132.182-102.4a.517.517,0,0,1,.671.024.51.51,0,0,1,.079.661L513.368,184.815A.523.523,0,0,1,512.937,185.039Zm-47.475-20.495L512.746,183.9l81.6-119.2Z" transform="translate(-463.929 -61.775)" fill="#c7c7c7"/>
        </g>
        <g id="Group_449" data-name="Group 449" transform="translate(1170.19 347.616)">
          <path id="Path_5384" data-name="Path 5384" d="M489.748,165.191a.526.526,0,0,1-.137-.02.508.508,0,0,1-.344-.3L455.912,81.515a.5.5,0,0,1,.037-.449.523.523,0,0,1,.385-.245L621.868,61.778a.522.522,0,0,1,.538.31.505.505,0,0,1-.157.6l-132.182,102.4A.539.539,0,0,1,489.748,165.191ZM457.122,81.755l32.85,82.1L620.166,63Z" transform="translate(-455.876 -61.775)" fill="#c7c7c7"/>
        </g>
        <g id="Group_450" data-name="Group 450" transform="translate(1252.034 360.677)">
          <path id="Path_5385" data-name="Path 5385" d="M476.154,175.179a.517.517,0,0,1-.5-.383.505.505,0,0,1,.261-.579L688.342,65.034a.527.527,0,0,1,.6.086.5.5,0,0,1,.112.583l-50.2,106.3a.519.519,0,0,1-.46.294l-162.228,2.879ZM687.473,66.633,478.341,174.119l159.71-2.83Z" transform="translate(-475.636 -64.978)" fill="#c7c7c7"/>
        </g>
        <g id="Group_451" data-name="Group 451" transform="translate(1252.034 347.615)">
          <path id="Path_5386" data-name="Path 5386" d="M476.154,185.038a.519.519,0,0,1-.385-.171.5.5,0,0,1-.045-.624L559.416,62a.5.5,0,0,1,.48-.22L688.636,74.84a.507.507,0,0,1,.187.958L476.394,184.981A.548.548,0,0,1,476.154,185.038ZM560.1,62.823,477.724,183.146,686.814,75.68Z" transform="translate(-475.636 -61.775)" fill="#c7c7c7"/>
        </g>
        <g id="Group_452" data-name="Group 452" transform="translate(703.675 439.732)">
          <path id="Path_5387" data-name="Path 5387" d="M490.935,299.341a.5.5,0,0,1-.186-.033L343.581,244.377a.513.513,0,0,1-.331-.4.52.52,0,0,1,.2-.481L558.085,84.467a.522.522,0,0,1,.609-.008.5.5,0,0,1,.2.567L491.428,298.986a.507.507,0,0,1-.269.306A.54.54,0,0,1,490.935,299.341ZM344.823,243.753,490.6,298.163l66.826-211.93Z" transform="translate(-343.245 -84.365)" fill="#c7c7c7"/>
        </g>
        <g id="Group_453" data-name="Group 453" transform="translate(850.846 468.837)">
          <path id="Path_5388" data-name="Path 5388" d="M379.3,277.373a.521.521,0,0,1-.452-.257.5.5,0,0,1,.108-.632L590.018,91.635a.52.52,0,0,1,.663-.024.5.5,0,0,1,.141.636L517.9,233.582a.521.521,0,0,1-.3.257L379.453,277.353A.538.538,0,0,1,379.3,277.373ZM588.664,94.183l-207.2,181.465,135.608-42.719Z" transform="translate(-378.777 -91.503)" fill="#c7c7c7"/>
        </g>
        <g id="Group_454" data-name="Group 454" transform="translate(850.847 439.73)">
          <path id="Path_5389" data-name="Path 5389" d="M379.3,299.342a.5.5,0,0,1-.282-.082.508.508,0,0,1-.215-.579L446.263,84.725a.526.526,0,0,1,.6-.351l143.6,29.111a.512.512,0,0,1,.4.367.5.5,0,0,1-.157.514L379.639,299.216A.527.527,0,0,1,379.3,299.342ZM447.112,85.467,380.339,297.234,589.247,114.276Z" transform="translate(-378.777 -84.365)" fill="#c7c7c7"/>
        </g>
        <g id="Group_455" data-name="Group 455" transform="translate(988.99 450.011)">
          <path id="Path_5390" data-name="Path 5390" d="M561.849,259.752h-.042l-149.2-11.683a.513.513,0,0,1-.456-.363.5.5,0,0,1,.182-.551L626.891,86.989a.528.528,0,0,1,.621,0,.5.5,0,0,1,.174.587l-65.352,171.85A.523.523,0,0,1,561.849,259.752ZM414.043,247.16,561.5,258.7,626.087,88.865Z" transform="translate(-412.129 -86.886)" fill="#c7c7c7"/>
        </g>
        <g id="Group_456" data-name="Group 456" transform="translate(988.991 450.01)">
          <path id="Path_5391" data-name="Path 5391" d="M412.647,248.074a.522.522,0,0,1-.331-.118.5.5,0,0,1-.128-.624L485.11,106a.511.511,0,0,1,.389-.273L627.13,86.892a.51.51,0,0,1,.385.909L412.957,247.968A.52.52,0,0,1,412.647,248.074ZM485.91,106.693,414.13,245.819,625.32,88.16Z" transform="translate(-412.129 -86.886)" fill="#c7c7c7"/>
        </g>
        <g id="Group_457" data-name="Group 457" transform="translate(1138.19 469.856)">
          <path id="Path_5392" data-name="Path 5392" d="M533.775,301.511a.534.534,0,0,1-.29-.086l-85.1-56.738a.507.507,0,0,1-.224-.334.525.525,0,0,1,.1-.392l113.842-152a.521.521,0,0,1,.613-.167.506.506,0,0,1,.319.542L534.289,301.071a.493.493,0,0,1-.3.4A.468.468,0,0,1,533.775,301.511ZM449.4,244.141l83.974,55.98L561.725,94.169Z" transform="translate(-448.151 -91.752)" fill="#c7c7c7"/>
        </g>
        <g id="Group_458" data-name="Group 458" transform="translate(1138.192 450.009)">
          <path id="Path_5393" data-name="Path 5393" d="M448.669,259.753a.533.533,0,0,1-.249-.061.505.505,0,0,1-.236-.628L513.536,87.218a.5.5,0,0,1,.277-.289.52.52,0,0,1,.406,0l48.49,19.847a.512.512,0,0,1,.219.775l-113.846,152A.506.506,0,0,1,448.669,259.753ZM514.315,88.07,450.454,256,561.7,107.464Z" transform="translate(-448.151 -86.885)" fill="#c7c7c7"/>
        </g>
        <g id="Group_459" data-name="Group 459" transform="translate(1223.3 466.98)">
          <path id="Path_5394" data-name="Path 5394" d="M469.214,303.682a.509.509,0,0,1-.385-.848L659.789,91.218a.5.5,0,0,1,.422-.167.518.518,0,0,1,.4.224L744.5,215.284a.5.5,0,0,1,.058.449.514.514,0,0,1-.327.318L469.375,303.658A.558.558,0,0,1,469.214,303.682ZM660.121,92.388,470.866,302.112l272.392-86.824Z" transform="translate(-468.699 -91.047)" fill="#c7c7c7"/>
        </g>
        <g id="Group_460" data-name="Group 460" transform="translate(1223.3 466.979)">
          <path id="Path_5395" data-name="Path 5395" d="M469.214,303.683a.512.512,0,0,1-.215-.045.5.5,0,0,1-.294-.53L497.437,94.366a.514.514,0,0,1,.505-.44L660.17,91.047a.6.6,0,0,1,.476.3.5.5,0,0,1-.083.55L469.6,303.511A.514.514,0,0,1,469.214,303.683ZM498.4,94.937,469.955,301.587l189.052-209.5Z" transform="translate(-468.699 -91.047)" fill="#c7c7c7"/>
        </g>
        <g id="Group_461" data-name="Group 461" transform="translate(546.855 598.756)">
          <path id="Path_5396" data-name="Path 5396" d="M305.9,389.956a.513.513,0,0,1-.452-.767L462.275,123.616a.52.52,0,0,1,.965.3L446.275,311.173a.5.5,0,0,1-.261.4L306.156,389.891A.507.507,0,0,1,305.9,389.956ZM462,126.112l-154.69,261.96,137.956-77.253Z" transform="translate(-305.383 -123.363)" fill="#c7c7c7"/>
        </g>
        <g id="Group_462" data-name="Group 462" transform="translate(686.712 653.691)">
          <path id="Path_5397" data-name="Path 5397" d="M470.912,318.725a.555.555,0,0,1-.182-.033l-131.242-48.55a.507.507,0,0,1-.149-.873L503.471,136.95a.526.526,0,0,1,.592-.045.508.508,0,0,1,.249.53l-32.891,180.87a.532.532,0,0,1-.253.355A.585.585,0,0,1,470.912,318.725ZM340.688,269.5,470.51,317.522l32.535-178.908Z" transform="translate(-339.149 -136.835)" fill="#c7c7c7"/>
        </g>
        <g id="Group_463" data-name="Group 463" transform="translate(686.712 598.758)">
          <path id="Path_5398" data-name="Path 5398" d="M339.665,311.637a.547.547,0,0,1-.24-.057.505.505,0,0,1-.273-.5l16.966-187.255a.5.5,0,0,1,.24-.387.528.528,0,0,1,.456-.045l147.172,54.936a.5.5,0,0,1,.327.391.512.512,0,0,1-.182.477L340,311.523A.543.543,0,0,1,339.665,311.637ZM357.087,124.59l-16.8,185.376L502.78,178.971Z" transform="translate(-339.149 -123.363)" fill="#c7c7c7"/>
        </g>
        <g id="Group_464" data-name="Group 464" transform="translate(817.955 610.176)">
          <path id="Path_5399" data-name="Path 5399" d="M371.355,351.569a.541.541,0,0,1-.365-.143.5.5,0,0,1-.05-.673L541.975,126.37a.522.522,0,0,1,.659-.147.512.512,0,0,1,.244.62l-44.3,124.808a.513.513,0,0,1-.166.228L371.678,351.459A.533.533,0,0,1,371.355,351.569ZM540.8,129.608,374.2,348.164l123.447-96.99Z" transform="translate(-370.836 -126.163)" fill="#c7c7c7"/>
        </g>
        <g id="Group_465" data-name="Group 465" transform="translate(817.956 610.176)">
          <path id="Path_5400" data-name="Path 5400" d="M371.354,351.569a.525.525,0,0,1-.207-.045.5.5,0,0,1-.3-.555L403.736,170.1a.507.507,0,0,1,.352-.4l138.143-43.514a.532.532,0,0,1,.58.192.508.508,0,0,1-.008.6L371.769,351.365A.531.531,0,0,1,371.354,351.569ZM404.7,170.581,372.249,349.037,541,127.646Z" transform="translate(-370.836 -126.163)" fill="#c7c7c7"/>
        </g>
        <g id="Group_466" data-name="Group 466" transform="translate(944.692 621.859)">
          <path id="Path_5401" data-name="Path 5401" d="M637.137,247.123h-.012l-235.181-3.947a.51.51,0,0,1-.257-.95L595.187,129.1a.521.521,0,0,1,.754.269l41.68,117.077a.5.5,0,0,1-.066.469A.519.519,0,0,1,637.137,247.123Zm-233.354-4.938L636.4,246.091l-41.229-115.8Z" transform="translate(-401.434 -129.028)" fill="#c7c7c7"/>
        </g>
        <g id="Group_467" data-name="Group 467" transform="translate(944.693 610.177)">
          <path id="Path_5402" data-name="Path 5402" d="M401.951,251.993a.511.511,0,0,1-.327-.118.5.5,0,0,1-.162-.563l44.3-124.808a.5.5,0,0,1,.53-.338l149.2,11.683a.508.508,0,0,1,.224.946L402.216,251.92A.519.519,0,0,1,401.951,251.993Zm44.655-124.78-43.7,123.116L593.786,138.737Z" transform="translate(-401.434 -126.164)" fill="#c7c7c7"/>
        </g>
        <g id="Group_468" data-name="Group 468" transform="translate(1179.875 678.593)">
          <path id="Path_5403" data-name="Path 5403" d="M561.389,214.239h-.05L458.68,204.3a.509.509,0,0,1-.418-.3.5.5,0,0,1,.05-.506l43.42-60.339a.524.524,0,0,1,.4-.216.48.48,0,0,1,.418.188l59.238,70.276a.5.5,0,0,1,.058.563A.522.522,0,0,1,561.389,214.239ZM459.67,203.372l100.517,9.73-58-68.812Z" transform="translate(-458.215 -142.941)" fill="#c7c7c7"/>
        </g>
        <g id="Group_469" data-name="Group 469" transform="translate(1138.192 621.857)">
          <path id="Path_5404" data-name="Path 5404" d="M490.354,247.125l-.075,0a.507.507,0,0,1-.414-.334L448.18,129.705a.507.507,0,0,1,.17-.571.522.522,0,0,1,.609-.016l85.1,56.738a.508.508,0,0,1,.22.33.5.5,0,0,1-.087.387l-43.42,60.339A.524.524,0,0,1,490.354,247.125Zm-40.678-116.3,40.831,114.692,42.542-59.111Z" transform="translate(-448.151 -129.028)" fill="#c7c7c7"/>
        </g>
        <g id="Group_470" data-name="Group 470" transform="translate(1282.532 590.989)">
          <path id="Path_5405" data-name="Path 5405" d="M483.516,280.361a.512.512,0,0,1-.472-.3.5.5,0,0,1,.166-.616L698.824,121.56a.526.526,0,0,1,.667.037.509.509,0,0,1,.079.652l-89.93,135.027a.53.53,0,0,1-.339.22l-125.688,22.86ZM697.1,124.092,485.612,278.954l123.281-22.42Z" transform="translate(-482.999 -121.458)" fill="#c7c7c7"/>
        </g>
        <g id="Group_471" data-name="Group 471" transform="translate(1223.299 590.988)">
          <path id="Path_5406" data-name="Path 5406" d="M528.449,280.361a.515.515,0,0,1-.4-.184L468.817,209.9a.518.518,0,0,1-.1-.469.532.532,0,0,1,.34-.343l274.852-87.607a.518.518,0,0,1,.617.253.5.5,0,0,1-.149.64L528.759,280.263A.539.539,0,0,1,528.449,280.361ZM470.1,209.828l58.435,69.326,212.7-155.746Z" transform="translate(-468.698 -121.458)" fill="#c7c7c7"/>
        </g>
        <g id="Group_472" data-name="Group 472" transform="translate(393.284 864.329)">
          <path id="Path_5407" data-name="Path 5407" d="M268.826,289.782a.517.517,0,0,1-.485-.33.5.5,0,0,1,.2-.6L422.107,188.576a.521.521,0,0,1,.65.061l70.724,68.87a.511.511,0,0,1-.294.869L268.9,289.778Zm153.505-100.13-151.31,98.8,220.99-30.942Z" transform="translate(-268.307 -188.49)" fill="#c7c7c7"/>
        </g>
        <g id="Group_473" data-name="Group 473" transform="translate(617.576 786.012)">
          <path id="Path_5408" data-name="Path 5408" d="M322.976,317.491a.517.517,0,0,1-.394-.179.507.507,0,0,1-.079-.546l69.138-147.187a.54.54,0,0,1,.514-.294.516.516,0,0,1,.456.371l33.421,119.263a.5.5,0,0,1-.36.624L323.113,317.471A.528.528,0,0,1,322.976,317.491ZM391.99,171.27,323.917,316.194,424.9,288.7Z" transform="translate(-322.458 -169.284)" fill="#c7c7c7"/>
        </g>
        <g id="Group_474" data-name="Group 474" transform="translate(546.856 786.011)">
          <path id="Path_5409" data-name="Path 5409" d="M376.623,317.492a.522.522,0,0,1-.365-.147l-70.72-68.87a.491.491,0,0,1-.149-.428.516.516,0,0,1,.257-.379L445.5,169.35a.519.519,0,0,1,.6.069.5.5,0,0,1,.12.587L377.091,317.194a.515.515,0,0,1-.377.289Zm-69.871-69.269,69.709,67.887,68.148-145.087Z" transform="translate(-305.384 -169.284)" fill="#c7c7c7"/>
        </g>
        <g id="Group_475" data-name="Group 475" transform="translate(720.136 834.56)">
          <path id="Path_5410" data-name="Path 5410" d="M522.006,287.548a.429.429,0,0,1-.1-.008L347.633,252.911a.511.511,0,0,1-.4-.391.5.5,0,0,1,.2-.522l97.817-70.709a.522.522,0,0,1,.729.114l76.448,105.341a.5.5,0,0,1,.017.571A.529.529,0,0,1,522.006,287.548ZM348.988,252.136l171.833,34.147-75.38-103.869Z" transform="translate(-347.219 -181.19)" fill="#c7c7c7"/>
        </g>
        <g id="Group_476" data-name="Group 476" transform="translate(686.711 786.013)">
          <path id="Path_5411" data-name="Path 5411" d="M373.092,289.561a.48.48,0,0,1-.17-.029.51.51,0,0,1-.331-.347L339.169,169.928a.493.493,0,0,1,.149-.51.529.529,0,0,1,.53-.1l131.246,48.55a.508.508,0,0,1,.12.889L373.4,289.463A.526.526,0,0,1,373.092,289.561ZM340.436,170.621,373.39,288.2l96.441-69.714Z" transform="translate(-339.149 -169.284)" fill="#c7c7c7"/>
        </g>
        <g id="Group_477" data-name="Group 477" transform="translate(894.403 734.987)">
          <path id="Path_5412" data-name="Path 5412" d="M389.813,362.7a.518.518,0,0,1-.348-.13.5.5,0,0,1-.158-.5L439.6,157.163a.516.516,0,0,1,1.015.171L419.5,352.239a.516.516,0,0,1-.344.428l-29.176,10.007A.5.5,0,0,1,389.813,362.7Zm48.933-197.731L390.537,361.406l27.971-9.6Z" transform="translate(-389.292 -156.771)" fill="#c7c7c7"/>
        </g>
        <g id="Group_478" data-name="Group 478" transform="translate(817.955 734.987)">
          <path id="Path_5413" data-name="Path 5413" d="M447.8,362.7a.524.524,0,0,1-.422-.212L370.932,257.154a.506.506,0,0,1,.1-.7l126.736-99.575a.53.53,0,0,1,.6-.033.514.514,0,0,1,.228.551L448.3,362.315a.508.508,0,0,1-.4.379ZM372.059,256.954l75.5,104.036,49.67-202.384Z" transform="translate(-370.836 -156.771)" fill="#c7c7c7"/>
        </g>
        <g id="Group_479" data-name="Group 479" transform="translate(923.578 738.937)">
          <path id="Path_5414" data-name="Path 5414" d="M622.726,369.96l-.05,0L396.807,349.714a.527.527,0,0,1-.452-.367.513.513,0,0,1,.186-.55l256.3-190.954a.528.528,0,0,1,.576-.033.508.508,0,0,1,.248.51l-30.427,211.2A.514.514,0,0,1,622.726,369.96Zm-224.49-21.143L622.279,368.9l30.183-209.5Z" transform="translate(-396.336 -157.74)" fill="#c7c7c7"/>
        </g>
        <g id="Group_480" data-name="Group 480" transform="translate(923.578 734.987)">
          <path id="Path_5415" data-name="Path 5415" d="M396.857,352.7a.514.514,0,0,1-.518-.563l21.116-194.909a.5.5,0,0,1,.522-.453l235.185,3.947a.514.514,0,0,1,.48.355.5.5,0,0,1-.178.563l-256.3,190.958A.542.542,0,0,1,396.857,352.7Zm21.575-194.9L397.5,351.069,651.641,161.713Z" transform="translate(-396.336 -156.771)" fill="#c7c7c7"/>
        </g>
        <g id="Group_481" data-name="Group 481" transform="translate(1149.449 748.872)">
          <path id="Path_5416" data-name="Path 5416" d="M451.388,362.462a.52.52,0,0,1-.447-.253.5.5,0,0,1,.012-.534L584.034,160.408a.523.523,0,0,1,.6-.2.515.515,0,0,1,.348.53L567.706,353.1a.515.515,0,0,1-.476.465l-115.805,8.9ZM583.773,162.68,452.394,361.361l114.318-8.784Z" transform="translate(-450.869 -160.176)" fill="#c7c7c7"/>
        </g>
        <g id="Group_482" data-name="Group 482" transform="translate(1149.449 738.938)">
          <path id="Path_5417" data-name="Path 5417" d="M451.387,369.96a.551.551,0,0,1-.182-.033.513.513,0,0,1-.331-.55l30.427-211.2a.535.535,0,0,1,.563-.436l102.654,9.938a.518.518,0,0,1,.418.285.505.505,0,0,1-.033.5L451.818,369.728A.516.516,0,0,1,451.387,369.96ZM482.253,158.8,452.224,367.244,583.57,168.612Z" transform="translate(-450.869 -157.74)" fill="#c7c7c7"/>
        </g>
        <g id="Group_483" data-name="Group 483" transform="translate(1265.253 726.017)">
          <path id="Path_5418" data-name="Path 5418" d="M633.665,404.35a.524.524,0,0,1-.112-.012L479.236,370.8a.508.508,0,0,1-.369-.306.5.5,0,0,1,.046-.473L621.877,154.8a.521.521,0,0,1,.571-.212.512.512,0,0,1,.381.469l11.349,248.756a.5.5,0,0,1-.182.412A.526.526,0,0,1,633.665,404.35ZM480.189,369.962,633.118,403.2l-11.25-246.514Z" transform="translate(-478.827 -154.571)" fill="#c7c7c7"/>
        </g>
        <g id="Group_484" data-name="Group 484" transform="translate(1265.253 726.017)">
          <path id="Path_5419" data-name="Path 5419" d="M479.347,370.814a.593.593,0,0,1-.17-.029.508.508,0,0,1-.348-.526l17.28-192.369a.509.509,0,0,1,.422-.453l125.684-22.86a.532.532,0,0,1,.526.22.5.5,0,0,1,0,.563L479.778,370.582A.516.516,0,0,1,479.347,370.814Zm17.761-192.446L480.043,368.319,621.218,155.8Z" transform="translate(-478.827 -154.571)" fill="#c7c7c7"/>
        </g>
        <g id="Group_485" data-name="Group 485" transform="translate(298.544 964.602)">
          <path id="Path_5420" data-name="Path 5420" d="M245.95,348.3a.535.535,0,0,1-.439-.237.506.506,0,0,1,.017-.563L340.27,213.3a.626.626,0,0,1,.435-.22.515.515,0,0,1,.427.241l68.914,107.674a.509.509,0,0,1-.356.775L246.033,348.295Zm94.722-133.788-93.6,132.576,161.682-26.2Z" transform="translate(-245.433 -213.08)" fill="#c7c7c7"/>
        </g>
        <g id="Group_486" data-name="Group 486" transform="translate(462.198 933.199)">
          <path id="Path_5421" data-name="Path 5421" d="M364.633,349.341h-.025l-79.169-3.862a.519.519,0,0,1-.464-.338.5.5,0,0,1,.141-.546L440.493,205.509a.526.526,0,0,1,.663-.024.506.506,0,0,1,.145.64L365.089,349.072A.511.511,0,0,1,364.633,349.341Zm-77.9-4.82,77.6,3.788,74.692-140.1Z" transform="translate(-284.945 -205.379)" fill="#c7c7c7"/>
        </g>
        <g id="Group_487" data-name="Group 487" transform="translate(393.285 933.2)">
          <path id="Path_5422" data-name="Path 5422" d="M337.739,345.478l-.07,0a.521.521,0,0,1-.369-.232L268.386,237.564a.507.507,0,0,1-.033-.485.518.518,0,0,1,.4-.294l224.291-31.4a.53.53,0,0,1,.543.29.5.5,0,0,1-.12.591L338.087,345.348A.518.518,0,0,1,337.739,345.478ZM269.687,237.687l68.16,106.5L491.522,206.626Z" transform="translate(-268.307 -205.379)" fill="#c7c7c7"/>
        </g>
        <g id="Group_488" data-name="Group 488" transform="translate(541.367 905.269)">
          <path id="Path_5423" data-name="Path 5423" d="M304.578,370.422a.517.517,0,0,1-.456-.265.5.5,0,0,1,.1-.608L482.985,198.674a.519.519,0,0,1,.48-.13.506.506,0,0,1,.369.334L524.8,319.315a.514.514,0,0,1-.377.661L304.694,370.409A.373.373,0,0,1,304.578,370.422ZM483.113,199.971,306.276,369l217.358-49.892Z" transform="translate(-304.059 -198.53)" fill="#c7c7c7"/>
        </g>
        <g id="Group_489" data-name="Group 489" transform="translate(541.369 905.271)">
          <path id="Path_5424" data-name="Path 5424" d="M304.577,370.42a.539.539,0,0,1-.311-.1.512.512,0,0,1-.149-.648l76.208-142.942a.512.512,0,0,1,.319-.257L483.207,198.55a.509.509,0,0,1,.584.237.5.5,0,0,1-.087.616L304.937,370.277A.511.511,0,0,1,304.577,370.42Zm76.56-143.02-74.6,139.925L481.53,200.063Z" transform="translate(-304.059 -198.53)" fill="#c7c7c7"/>
        </g>
        <g id="Group_490" data-name="Group 490" transform="translate(761.096 939.9)">
          <path id="Path_5425" data-name="Path 5425" d="M461.212,362.193a.524.524,0,0,1-.29-.086L357.34,293.764a.505.505,0,0,1,0-.852l133.3-85.809a.536.536,0,0,1,.572,0,.5.5,0,0,1,.22.518L461.721,361.777a.506.506,0,0,1-.311.375A.483.483,0,0,1,461.212,362.193ZM358.566,293.344l102.282,67.487L490.2,208.616Z" transform="translate(-357.108 -207.022)" fill="#c7c7c7"/>
        </g>
        <g id="Group_491" data-name="Group 491" transform="translate(720.135 905.27)">
          <path id="Path_5426" data-name="Path 5426" d="M388.7,319.987a.517.517,0,0,1-.489-.347L347.245,199.2a.515.515,0,0,1,.1-.5.544.544,0,0,1,.489-.163l174.269,34.632a.508.508,0,0,1,.182.926l-133.3,85.809A.552.552,0,0,1,388.7,319.987ZM348.512,199.713,388.975,318.69l131.69-84.769Z" transform="translate(-347.219 -198.53)" fill="#c7c7c7"/>
        </g>
        <g id="Group_492" data-name="Group 492" transform="translate(864.683 929.894)">
          <path id="Path_5427" data-name="Path 5427" d="M563.46,419.09a.526.526,0,0,1-.137-.02l-180.83-49.345a.505.505,0,0,1-.319-.253.518.518,0,0,1-.029-.408l58.9-164.155a.508.508,0,0,1,.443-.338.524.524,0,0,1,.5.257l121.927,213.5a.5.5,0,0,1-.046.567A.525.525,0,0,1,563.46,419.09Zm-180.155-50.2L562.4,417.761,441.641,206.308Z" transform="translate(-382.117 -204.568)" fill="#c7c7c7"/>
        </g>
        <g id="Group_493" data-name="Group 493" transform="translate(864.681 929.89)">
          <path id="Path_5428" data-name="Path 5428" d="M382.635,369.748a.523.523,0,0,1-.137-.016.51.51,0,0,1-.373-.587l29.723-154.152a.5.5,0,0,1,.34-.383L441.364,204.6a.512.512,0,0,1,.534.122.506.506,0,0,1,.124.53l-58.9,164.159A.516.516,0,0,1,382.635,369.748ZM412.81,215.473l-28.4,147.281,56.273-156.843Z" transform="translate(-382.117 -204.568)" fill="#c7c7c7"/>
        </g>
        <g id="Group_494" data-name="Group 494" transform="translate(1045.508 950.135)">
          <path id="Path_5429" data-name="Path 5429" d="M426.291,403.813a.528.528,0,0,1-.381-.167.5.5,0,0,1-.075-.583L529.778,209.8a.511.511,0,0,1,.617-.245.5.5,0,0,1,.348.559L506.152,370.493a.515.515,0,0,1-.307.4L426.49,403.772A.557.557,0,0,1,426.291,403.813ZM529.265,212.928,427.426,402.275l77.749-32.214Z" transform="translate(-425.774 -209.532)" fill="#c7c7c7"/>
        </g>
        <g id="Group_495" data-name="Group 495" transform="translate(923.579 929.895)">
          <path id="Path_5430" data-name="Path 5430" d="M518.783,419.089a.524.524,0,0,1-.451-.261L396.4,205.324a.493.493,0,0,1,.017-.526.531.531,0,0,1,.48-.228l225.869,20.242a.52.52,0,0,1,.41.265.509.509,0,0,1,0,.481L519.239,418.816A.433.433,0,0,1,518.783,419.089ZM397.788,205.671,518.77,417.515,621.905,225.758Z" transform="translate(-396.336 -204.569)" fill="#c7c7c7"/>
        </g>
        <g id="Group_496" data-name="Group 496" transform="translate(1124.859 941.229)">
          <path id="Path_5431" data-name="Path 5431" d="M445.45,377.648a.508.508,0,0,1-.4-.832l140.4-169.272a.4.4,0,0,1,.406-.184.525.525,0,0,1,.406.2l98.889,126.138a.514.514,0,0,1,.075.493.529.529,0,0,1-.393.318L445.541,377.644ZM585.833,208.685l-139.091,167.7,237.065-42.735Z" transform="translate(-444.932 -207.348)" fill="#c7c7c7"/>
        </g>
        <g id="Group_497" data-name="Group 497" transform="translate(1124.858 941.237)">
          <path id="Path_5432" data-name="Path 5432" d="M445.451,377.642a.556.556,0,0,1-.211-.041.513.513,0,0,1-.3-.542l24.591-160.375a.521.521,0,0,1,.472-.432l115.805-8.9a.476.476,0,0,1,.5.273.5.5,0,0,1-.054.559l-140.4,169.272A.537.537,0,0,1,445.451,377.642Zm25.038-160.4L446.242,375.371,584.678,208.463Z" transform="translate(-444.932 -207.35)" fill="#c7c7c7"/>
        </g>
        <g id="Group_498" data-name="Group 498" transform="translate(1364.145 974.776)">
          <path id="Path_5433" data-name="Path 5433" d="M528.242,327a.5.5,0,0,1-.3-.1l-25.021-17.8a.506.506,0,0,1-.145-.673l55.428-92.6a.526.526,0,0,1,.65-.208.51.51,0,0,1,.3.6l-30.406,110.4a.529.529,0,0,1-.327.347A.649.649,0,0,1,528.242,327ZM503.9,308.54l24.036,17.1,29.2-106.034Z" transform="translate(-502.703 -215.575)" fill="#c7c7c7"/>
        </g>
        <g id="Group_499" data-name="Group 499" transform="translate(1265.253 941.241)">
          <path id="Path_5434" data-name="Path 5434" d="M578.237,334.5a.519.519,0,0,1-.41-.2L478.937,208.17a.5.5,0,0,1-.029-.583.526.526,0,0,1,.551-.224L633.776,240.9a.5.5,0,0,1,.36.294.5.5,0,0,1-.025.461l-55.428,92.6a.533.533,0,0,1-.414.253ZM480.627,208.66l97.552,124.425,54.678-91.342Z" transform="translate(-478.827 -207.351)" fill="#c7c7c7"/>
        </g>
        <g id="Group_500" data-name="Group 500" transform="translate(147.935 1072.279)">
          <path id="Path_5435" data-name="Path 5435" d="M209.591,391.172a.519.519,0,0,1-.493-.347.507.507,0,0,1,.265-.62L523.63,239.536a.522.522,0,0,1,.646.163.507.507,0,0,1-.054.657h0l-87.7,106.654a.494.494,0,0,1-.3.179L209.69,391.164A.825.825,0,0,1,209.591,391.172ZM521.986,241.456,213.4,389.4l222.436-43.176Z" transform="translate(-209.072 -239.486)" fill="#c7c7c7"/>
        </g>
        <g id="Group_501" data-name="Group 501" transform="translate(147.936 1072.277)">
          <path id="Path_5436" data-name="Path 5436" d="M209.59,391.173a.519.519,0,0,1-.435-.232.509.509,0,0,1,.1-.669l150.61-124.14a.508.508,0,0,1,.248-.11L523.729,239.5a.52.52,0,0,1,.547.2.507.507,0,0,1-.054.657h0a.571.571,0,0,1-.166.114L209.814,391.12A.487.487,0,0,1,209.59,391.173ZM360.419,267,213.16,388.384,520.436,241.066Z" transform="translate(-209.072 -239.485)" fill="#c7c7c7"/>
        </g>
        <g id="Group_502" data-name="Group 502" transform="translate(374.462 1076.146)">
          <path id="Path_5437" data-name="Path 5437" d="M474.21,350.579h-.017l-209.931-6.3a.516.516,0,0,1-.48-.379.5.5,0,0,1,.224-.563l166.9-102.829a.537.537,0,0,1,.439-.053.516.516,0,0,1,.319.3L474.69,349.885a.5.5,0,0,1-.058.477A.529.529,0,0,1,474.21,350.579ZM266,343.316l207.446,6.219L430.931,241.7Z" transform="translate(-263.762 -240.434)" fill="#c7c7c7"/>
        </g>
        <g id="Group_503" data-name="Group 503" transform="translate(374.462 1072.276)">
          <path id="Path_5438" data-name="Path 5438" d="M264.279,347.2a.52.52,0,0,1-.385-.171.506.506,0,0,1-.017-.661l87.739-106.695a.47.47,0,0,1,.427-.188l79.169,3.866a.51.51,0,0,1,.476.379.516.516,0,0,1-.228.563l-166.9,102.829A.53.53,0,0,1,264.279,347.2Zm87.975-106.683L266.631,344.643l162.883-100.35Z" transform="translate(-263.762 -239.485)" fill="#c7c7c7"/>
        </g>
        <g id="Group_504" data-name="Group 504" transform="translate(584.391 1025.708)">
          <path id="Path_5439" data-name="Path 5439" d="M422.44,465.922a.526.526,0,0,1-.307-.1L314.658,388.55a.506.506,0,0,1-.046-.787L491.317,228.2a.524.524,0,0,1,.625-.057.511.511,0,0,1,.224.575L422.937,465.555a.506.506,0,0,1-.331.339A.456.456,0,0,1,422.44,465.922ZM315.78,388.093l106.365,76.479,68.516-234.394Z" transform="translate(-314.446 -228.065)" fill="#c7c7c7"/>
        </g>
        <g id="Group_505" data-name="Group 505" transform="translate(541.367 1025.707)">
          <path id="Path_5440" data-name="Path 5440" d="M347.6,388.649a.527.527,0,0,1-.116-.012.519.519,0,0,1-.369-.314L304.094,279.2a.507.507,0,0,1,.025-.424.515.515,0,0,1,.34-.257l219.731-50.438a.517.517,0,0,1,.572.261.5.5,0,0,1-.108.612l-176.7,159.563A.522.522,0,0,1,347.6,388.649ZM305.274,279.376l42.534,107.882L522.5,229.513Z" transform="translate(-304.059 -228.065)" fill="#c7c7c7"/>
        </g>
        <g id="Group_506" data-name="Group 506" transform="translate(691.866 1094.051)">
          <path id="Path_5441" data-name="Path 5441" d="M340.913,414.339a.538.538,0,0,1-.4-.183.508.508,0,0,1,.037-.689L513.363,244.972a.521.521,0,0,1,.65-.061.5.5,0,0,1,.19.616l-30.692,74.162a.5.5,0,0,1-.19.233L341.2,414.253A.544.544,0,0,1,340.913,414.339ZM512.29,247.452l-167.1,162.923,137.422-91.212Z" transform="translate(-340.394 -244.825)" fill="#c7c7c7"/>
        </g>
        <g id="Group_507" data-name="Group 507" transform="translate(691.867 1025.708)">
          <path id="Path_5442" data-name="Path 5442" d="M340.912,465.921a.513.513,0,0,1-.265-.069.5.5,0,0,1-.232-.579l69.229-236.837a.505.505,0,0,1,.319-.338.527.527,0,0,1,.468.053l103.586,68.343a.511.511,0,0,1,.074.787L341.276,465.774A.518.518,0,0,1,340.912,465.921Zm69.531-236.535L341.956,463.674,512.911,297Z" transform="translate(-340.394 -228.065)" fill="#c7c7c7"/>
        </g>
        <g id="Group_508" data-name="Group 508" transform="translate(833.986 1143.392)">
          <path id="Path_5443" data-name="Path 5443" d="M470.025,402.8h0a.519.519,0,0,1-.406-.2l-94.8-120.033a.5.5,0,0,1-.07-.51.51.51,0,0,1,.414-.31l211.522-24.821a.506.506,0,0,1,.513.257.5.5,0,0,1-.046.567L470.43,402.608A.522.522,0,0,1,470.025,402.8ZM376.2,282.656l93.832,118.81L585.556,258.092Z" transform="translate(-374.706 -256.925)" fill="#c7c7c7"/>
        </g>
        <g id="Group_509" data-name="Group 509" transform="translate(833.988 1094.053)">
          <path id="Path_5444" data-name="Path 5444" d="M375.222,320.006a.526.526,0,0,1-.41-.2.5.5,0,0,1-.066-.5l30.692-74.162a.517.517,0,0,1,.617-.3l180.826,49.341a.512.512,0,0,1,.381.53.52.52,0,0,1-.456.469L375.284,320Zm31-74.06-30.191,72.943,208.038-24.414Z" transform="translate(-374.706 -244.825)" fill="#c7c7c7"/>
        </g>
        <g id="Group_510" data-name="Group 510" transform="translate(928.785 1110.508)">
          <path id="Path_5445" data-name="Path 5445" d="M398.113,427.619a.522.522,0,0,1-.456-.265.5.5,0,0,1,.1-.62L593.833,249a.52.52,0,0,1,.845.224l37.1,115.474a.492.492,0,0,1-.041.4.513.513,0,0,1-.319.249L398.246,427.6A.475.475,0,0,1,398.113,427.619Zm195.824-177.33L400.023,426.069,630.63,364.495Z" transform="translate(-397.594 -248.861)" fill="#c7c7c7"/>
        </g>
        <g id="Group_511" data-name="Group 511" transform="translate(928.786 1110.51)">
          <path id="Path_5446" data-name="Path 5446" d="M398.113,427.618a.52.52,0,0,1-.352-.135.505.505,0,0,1-.054-.693L514.427,281.94a.5.5,0,0,1,.2-.155L593.982,248.9a.522.522,0,0,1,.638.2.5.5,0,0,1-.083.648L398.461,427.483A.518.518,0,0,1,398.113,427.618ZM515.156,282.674,402.636,422.317,591.654,250.973Z" transform="translate(-397.594 -248.861)" fill="#c7c7c7"/>
        </g>
        <g id="Group_512" data-name="Group 512" transform="translate(1161.961 1067.373)">
          <path id="Path_5447" data-name="Path 5447" d="M454.41,397.912a.516.516,0,0,1-.464-.277.5.5,0,0,1,.141-.628L656.268,238.394a.524.524,0,0,1,.683.033.505.505,0,0,1,.054.673L556.24,370.245a.488.488,0,0,1-.273.183L454.546,397.9A.514.514,0,0,1,454.41,397.912ZM653.7,241.713,456.7,396.253l98.819-26.762Z" transform="translate(-453.889 -238.283)" fill="#c7c7c7"/>
        </g>
        <g id="Group_513" data-name="Group 513" transform="translate(1124.859 1067.373)">
          <path id="Path_5448" data-name="Path 5448" d="M482.554,397.912a.481.481,0,0,1-.153-.02.527.527,0,0,1-.344-.334l-37.1-115.474a.492.492,0,0,1,.05-.416.516.516,0,0,1,.348-.241L684.64,238.292a.519.519,0,0,1,.567.29.5.5,0,0,1-.149.608L482.873,397.8A.5.5,0,0,1,482.554,397.912ZM446.121,282.328l36.7,114.214L682.8,239.658Z" transform="translate(-444.932 -238.283)" fill="#c7c7c7"/>
        </g>
        <g id="Group_514" data-name="Group 514" transform="translate(1263.382 1085.178)">
          <path id="Path_5449" data-name="Path 5449" d="M478.895,357.01a.519.519,0,0,1-.48-.318.5.5,0,0,1,.128-.567L604.33,242.783a.512.512,0,0,1,.435-.126.524.524,0,0,1,.373.261L663,349.96a.489.489,0,0,1-.008.493.514.514,0,0,1-.431.253l-183.646,6.3ZM604.533,243.978,480.278,355.942,661.7,349.719Z" transform="translate(-478.376 -242.649)" fill="#c7c7c7"/>
        </g>
        <g id="Group_515" data-name="Group 515" transform="translate(1263.382 1067.375)">
          <path id="Path_5450" data-name="Path 5450" d="M478.894,370.448a.511.511,0,0,1-.348-.134.5.5,0,0,1-.066-.685L579.242,238.487a.52.52,0,0,1,.717-.106l25.022,17.8a.491.491,0,0,1,.215.383.514.514,0,0,1-.166.4L479.242,370.313A.518.518,0,0,1,478.894,370.448ZM579.764,239.5,482.73,365.791l121.132-109.15Z" transform="translate(-478.376 -238.283)" fill="#c7c7c7"/>
        </g>
        <g id="Group_516" data-name="Group 516" transform="translate(0 1222.944)">
          <path id="Path_5451" data-name="Path 5451" d="M378.174,492.451a.538.538,0,0,1-.236-.053l-204.3-101.72a.5.5,0,0,1-.282-.4.506.506,0,0,1,.2-.453L321.491,276.541a.531.531,0,0,1,.485-.082.516.516,0,0,1,.335.359l56.364,215a.5.5,0,0,1-.178.526A.516.516,0,0,1,378.174,492.451ZM174.836,390.132l202.55,100.847L321.5,277.826Z" transform="translate(-173.355 -276.434)" fill="#c7c7c7"/>
        </g>
        <g id="Group_517" data-name="Group 517" transform="translate(204.3 1178.976)">
          <path id="Path_5452" data-name="Path 5452" d="M223.2,525.637a.5.5,0,0,1-.418-.212.491.491,0,0,1-.017-.571L392.927,265.883a.513.513,0,0,1,.572-.212.507.507,0,0,1,.377.469l7.9,213.916a.51.51,0,0,1-.393.51L223.327,525.625A.678.678,0,0,1,223.2,525.637ZM392.9,267.8,224.354,524.312l176.369-44.631Z" transform="translate(-222.68 -265.651)" fill="#c7c7c7"/>
        </g>
        <g id="Group_518" data-name="Group 518" transform="translate(147.936 1178.972)">
          <path id="Path_5453" data-name="Path 5453" d="M265.954,525.64l-.083,0a.513.513,0,0,1-.418-.375l-56.364-215a.506.506,0,0,1,.062-.4.522.522,0,0,1,.34-.228l226.524-43.971a.513.513,0,0,1,.53.216.5.5,0,0,1,0,.563L266.389,525.408A.518.518,0,0,1,265.954,525.64ZM210.228,310.529l55.933,213.349L435.016,266.9Z" transform="translate(-209.072 -265.65)" fill="#c7c7c7"/>
        </g>
        <g id="Group_519" data-name="Group 519" transform="translate(382.356 1185.269)">
          <path id="Path_5454" data-name="Path 5454" d="M266.189,475.831a.516.516,0,0,1-.447-.249.5.5,0,0,1,.07-.612l202.037-207.62a.529.529,0,0,1,.514-.139.51.51,0,0,1,.364.379l33.455,145.026a.51.51,0,0,1-.369.608l-235.491,62.59A.516.516,0,0,1,266.189,475.831Zm201.738-207.09L267.846,474.355l233.217-61.986Z" transform="translate(-265.668 -267.195)" fill="#c7c7c7"/>
        </g>
        <g id="Group_520" data-name="Group 520" transform="translate(374.46 1178.975)">
          <path id="Path_5455" data-name="Path 5455" d="M272.179,480.582a.487.487,0,0,1-.186-.033.5.5,0,0,1-.331-.457l-7.9-213.912a.5.5,0,0,1,.153-.379.606.606,0,0,1,.381-.151l209.931,6.3a.52.52,0,0,1,.464.314.505.505,0,0,1-.108.546L272.551,480.427A.521.521,0,0,1,272.179,480.582Zm-7.36-213.9,7.832,212.162L473.031,272.93Z" transform="translate(-263.762 -265.651)" fill="#c7c7c7"/>
        </g>
        <g id="Group_521" data-name="Group 521" transform="translate(617.848 1262.544)">
          <path id="Path_5456" data-name="Path 5456" d="M350.749,386.585a.52.52,0,0,1-.393-.175L322.65,354.742a.509.509,0,0,1,.037-.71L396.7,286.28a.526.526,0,0,1,.659-.037.5.5,0,0,1,.165.624l-46.311,99.42a.5.5,0,0,1-.393.294ZM323.76,354.448l26.852,30.693L395.5,288.776Z" transform="translate(-322.523 -286.145)" fill="#c7c7c7"/>
        </g>
        <g id="Group_522" data-name="Group 522" transform="translate(584.39 1185.27)">
          <path id="Path_5457" data-name="Path 5457" d="M348.419,413.241a.476.476,0,0,1-.149-.025.5.5,0,0,1-.352-.371l-33.459-145.03a.5.5,0,0,1,.22-.538.525.525,0,0,1,.588.016l107.476,77.274a.5.5,0,0,1,.211.383.488.488,0,0,1-.162.4l-74.017,67.756A.552.552,0,0,1,348.419,413.241ZM315.777,268.92l32.949,142.836,72.9-66.729Z" transform="translate(-314.446 -267.195)" fill="#c7c7c7"/>
        </g>
        <g id="Group_523" data-name="Group 523" transform="translate(645.556 1168.216)">
          <path id="Path_5458" data-name="Path 5458" d="M329.73,457.781a.521.521,0,0,1-.468-.294.5.5,0,0,1,.1-.567l188.43-193.751a.52.52,0,0,1,.534-.13.509.509,0,0,1,.352.42l22.408,178.594a.505.505,0,0,1-.116.387.517.517,0,0,1-.364.183L329.768,457.781ZM517.784,264.649,331.035,456.667l208.949-15.018Z" transform="translate(-329.213 -263.013)" fill="#c7c7c7"/>
        </g>
        <g id="Group_524" data-name="Group 524" transform="translate(645.555 1168.216)">
          <path id="Path_5459" data-name="Path 5459" d="M329.731,457.781a.523.523,0,0,1-.29-.086.509.509,0,0,1-.182-.636l46.311-99.42a.536.536,0,0,1,.182-.212L517.872,263.1a.534.534,0,0,1,.688.1.5.5,0,0,1-.025.681L330.1,457.626A.522.522,0,0,1,329.731,457.781Zm46.721-99.587-44.969,96.541L514.454,266.6Z" transform="translate(-329.213 -263.013)" fill="#c7c7c7"/>
        </g>
        <g id="Group_525" data-name="Group 525" transform="translate(856.392 1288.249)">
          <path id="Path_5460" data-name="Path 5460" d="M482.934,403.7a.544.544,0,0,1-.236-.057L380.4,351.973a.506.506,0,0,1-.091-.848L452.7,292.564a.539.539,0,0,1,.489-.094.517.517,0,0,1,.34.355L483.435,403.06a.509.509,0,0,1-.174.53A.541.541,0,0,1,482.934,403.7ZM381.572,351.419l100.563,50.8-29.4-108.363Z" transform="translate(-380.115 -292.449)" fill="#c7c7c7"/>
        </g>
        <g id="Group_526" data-name="Group 526" transform="translate(833.986 1168.216)">
          <path id="Path_5461" data-name="Path 5461" d="M397.632,442.628a.532.532,0,0,1-.195-.037.522.522,0,0,1-.323-.412l-22.4-178.594a.511.511,0,0,1,.315-.534.531.531,0,0,1,.609.155l94.8,120.033a.507.507,0,0,1-.079.71L397.959,442.51A.521.521,0,0,1,397.632,442.628ZM375.969,265.294l22.06,175.842,71.275-57.66Z" transform="translate(-374.706 -263.013)" fill="#c7c7c7"/>
        </g>
        <g id="Group_527" data-name="Group 527" transform="translate(958.695 1225.983)">
          <path id="Path_5462" data-name="Path 5462" d="M405.33,450.7a.513.513,0,0,1-.48-.33.5.5,0,0,1,.145-.567L608.261,277.3a.523.523,0,0,1,.857.355l11.026,168.086a.5.5,0,0,1-.133.379.531.531,0,0,1-.373.163l-214.3,4.416ZM608.149,278.745l-201.39,170.9,212.321-4.371Z" transform="translate(-404.815 -277.179)" fill="#c7c7c7"/>
        </g>
        <g id="Group_528" data-name="Group 528" transform="translate(928.786 1225.986)">
          <path id="Path_5463" data-name="Path 5463" d="M428.018,450.7a.478.478,0,0,1-.149-.024.52.52,0,0,1-.348-.355L397.612,340.081a.511.511,0,0,1,.364-.624L631.152,277.2a.517.517,0,0,1,.592.253.5.5,0,0,1-.12.624l-203.267,172.5A.522.522,0,0,1,428.018,450.7ZM398.747,340.309l29.561,108.962,200.914-170.5Z" transform="translate(-397.594 -277.18)" fill="#c7c7c7"/>
        </g>
        <g id="Group_529" data-name="Group 529" transform="translate(1172.992 1198.518)">
          <path id="Path_5464" data-name="Path 5464" d="M457.072,467.014a.531.531,0,0,1-.4-.183.509.509,0,0,1-.07-.538l90.39-195.55a.522.522,0,0,1,.572-.289.512.512,0,0,1,.414.481l6.751,171.923a.514.514,0,0,1-.393.514L457.2,467A.637.637,0,0,1,457.072,467.014ZM547.027,273.12,457.983,465.758l95.692-23.28Z" transform="translate(-456.553 -270.444)" fill="#c7c7c7"/>
        </g>
        <g id="Group_530" data-name="Group 530" transform="translate(1161.962 1198.518)">
          <path id="Path_5465" data-name="Path 5465" d="M465.439,467.014l-.1-.008a.515.515,0,0,1-.422-.469l-11.03-168.082a.509.509,0,0,1,.377-.526l101.42-27.468a.528.528,0,0,1,.534.163.507.507,0,0,1,.075.542l-90.386,195.55A.524.524,0,0,1,465.439,467.014ZM454.951,298.8,465.82,464.446,554.9,271.734Z" transform="translate(-453.89 -270.443)" fill="#c7c7c7"/>
        </g>
      </g>
    </g>
  </g>
</svg>
