<svg xmlns="http://www.w3.org/2000/svg" width="43" height="43" viewBox="0 0 43 43">
  <path id="Icon_ionic-ios-checkmark-circle" data-name="Icon ionic-ios-checkmark-circle" d="M24.875,3.375a21.5,21.5,0,1,0,21.5,21.5A21.5,21.5,0,0,0,24.875,3.375ZM35.883,18.931,22.063,32.813h-.01a1.867,1.867,0,0,1-1.2.569,1.81,1.81,0,0,1-1.209-.589L13.856,27a.412.412,0,0,1,0-.589l1.84-1.84a.4.4,0,0,1,.579,0l4.589,4.589,12.611-12.7a.408.408,0,0,1,.289-.124h0a.375.375,0,0,1,.289.124l1.809,1.871A.407.407,0,0,1,35.883,18.931Z" transform="translate(-3.375 -3.375)" fill="#1a1654"/>
</svg>
