<svg xmlns="http://www.w3.org/2000/svg" width="449.868" height="239.191" viewBox="0 0 449.868 239.191">
  <g id="Component_12_2" data-name="Component 12 – 2" transform="matrix(0.996, -0.087, 0.087, 0.996, 1.628, 39.18)">
    <path id="Path_7" data-name="Path 7" d="M283.745,605.228c89.39-62.043,199.822-43.181,298.985-21.476,44.048,9.642,112.279,32.824,108.555,89.486-1.518,23.125-17.55,46.193-36.178,59.089-31.394,21.734-70.971,27.04-108.16,29.2A390.521,390.521,0,0,1,393.5,739.835a366.625,366.625,0,0,1-70.889-34.194c-20.3-12.67-41.927-26.99-53.8-48.476-8.935-16.17-12.8-36.831-.359-52.332,5.76-7.172,18.087-14.258,27.108-15.988,22.849-4.381,35.081-7.994,78.135,4.8" transform="translate(-260.536 -563.077)" fill="none" stroke="#fbf6b4" stroke-miterlimit="10" stroke-width="3"/>
  </g>
</svg>
