<svg xmlns="http://www.w3.org/2000/svg" width="357.632" height="190.585" viewBox="0 0 357.632 190.585">
  <g id="Component_12_1" data-name="Component 12 – 1" transform="matrix(0.996, -0.087, 0.087, 0.996, 2.169, 31.878)">
    <path id="Path_7" data-name="Path 7" d="M278.9,596.337c70.719-48.957,158.086-34.073,236.537-16.946,34.847,7.608,88.827,25.9,85.882,70.611-1.2,18.247-13.884,36.45-28.622,46.625-24.837,17.149-56.147,21.336-85.569,23.042a309.7,309.7,0,0,1-121.4-17.118,290.376,290.376,0,0,1-56.083-26.982c-16.059-10-33.17-21.3-42.562-38.251-7.068-12.759-10.13-29.062-.284-41.294,4.557-5.659,14.31-11.25,21.446-12.615,18.077-3.457,27.754-6.308,61.815,3.785" transform="translate(-260.536 -563.077)" fill="none" stroke="#0062af" stroke-miterlimit="10" stroke-width="4"/>
  </g>
</svg>
