<svg xmlns="http://www.w3.org/2000/svg" width="354.167" height="259.676" viewBox="0 0 354.167 259.676">
  <g id="Component_11_2" data-name="Component 11 – 2" transform="matrix(-0.914, 0.407, -0.407, -0.914, 354.167, 124.444)">
    <path id="Path_5" data-name="Path 5" d="M934.024,599.081c67.872-38.8,171.162-49.421,202.882-44.19,16.616,2.739,33.974,7.492,45.615,20.079s14.541,35.187,1.964,46.765c-3.364,3.1-7.772,5.231-12.264,4.923-8.187-.563-14.158-9.212-14.71-17.7s3-16.644,6.948-24.1c20.53-38.717,54.687-69.473,94.551-85.14" transform="translate(-934.024 -492.302)" fill="none" stroke="#fff" stroke-miterlimit="10" stroke-width="3"/>
    <path id="Path_6" data-name="Path 6" d="M1105.938,492.3c7.488,2.9,12.588,3.643,20.076,6.54a1.373,1.373,0,0,1,1.02,2.05l-4.9,17.344" transform="translate(-799.328 -492.302)" fill="none" stroke="#fff" stroke-miterlimit="10" stroke-width="3"/>
  </g>
</svg>
