<svg xmlns="http://www.w3.org/2000/svg" width="249.272" height="267.06" viewBox="0 0 249.272 267.06">
  <g id="Group_354" data-name="Group 354" transform="translate(-312.358 -107.636)">
    <g id="Group_342" data-name="Group 342" transform="translate(474.569 295.27)">
      <g id="Group_337" data-name="Group 337">
        <path id="Path_2479" data-name="Path 2479" d="M422.5,181.291a39.738,39.738,0,0,0-38.623-39.706h-9.241l.514.768a39.675,39.675,0,0,0,0,77.875s-.547.669,0,.741c3.206.127,8.727-.077,8.727-.077A39.646,39.646,0,0,0,422.5,181.291Z" transform="translate(-335.441 -141.584)" fill="#ff9831"/>
        <circle id="Ellipse_85" data-name="Ellipse 85" cx="39.707" cy="39.707" r="39.707" transform="translate(0.003)" fill="#ffad33"/>
        <path id="Path_2480" data-name="Path 2480" d="M381.971,141.585a39.706,39.706,0,1,0,39.6,39.811A39.708,39.708,0,0,0,381.971,141.585Zm-.2,75.835A36.13,36.13,0,1,1,418,181.39,36.132,36.132,0,0,1,381.766,217.421Z" transform="translate(-339.684 -141.584)" fill="#ff9831"/>
        <g id="Group_335" data-name="Group 335" transform="translate(51.749 2.035)">
          <path id="Path_2481" data-name="Path 2481" d="M359.078,141.953h-7.992a38.932,38.932,0,0,1,7.467,3.244h7.815A36.727,36.727,0,0,0,359.078,141.953Z" transform="translate(-350.998 -141.953)" fill="#ff822e"/>
          <path id="Path_2482" data-name="Path 2482" d="M353.335,143.139a39.345,39.345,0,0,1,3.852,3.244h7.445q-1.061-1.069-2.205-2.056c-.5-.4-1-.8-1.492-1.188Z" transform="translate(-340.816 -136.584)" fill="#ff822e"/>
          <path id="Path_2483" data-name="Path 2483" d="M354.526,144.325a37.523,37.523,0,0,1,2.426,3.244H364.5c-.431-.674-.873-1.338-1.343-1.979-.343-.42-.685-.84-1.022-1.266Z" transform="translate(-335.425 -131.215)" fill="#ff822e"/>
          <path id="Path_2484" data-name="Path 2484" d="M355.291,145.511c.547,1.078,1.144,2.111,1.6,3.239h7.533q-.514-1.268-1.111-2.5c-.133-.249-.265-.492-.392-.741Z" transform="translate(-331.962 -125.846)" fill="#ff822e"/>
          <path id="Path_2485" data-name="Path 2485" d="M355.766,146.7c.332,1.083.768,2.117,1.006,3.239h7.495q-.282-1.318-.646-2.6c-.072-.21-.144-.42-.21-.635Z" transform="translate(-329.812 -120.477)" fill="#ff822e"/>
          <path id="Path_2486" data-name="Path 2486" d="M356.017,147.883c.133,1.072.276,2.139.326,3.239h7.605q-.041-1.011-.133-2.006c-.05-.414-.1-.824-.149-1.233Z" transform="translate(-328.675 -115.108)" fill="#ff822e"/>
          <path id="Path_2487" data-name="Path 2487" d="M356.017,152.308h7.649c.05-.409.1-.824.149-1.232q.091-.995.133-2.006h-7.605C356.3,150.163,356.15,151.236,356.017,152.308Z" transform="translate(-328.675 -109.739)" fill="#ff822e"/>
          <path id="Path_2488" data-name="Path 2488" d="M355.766,153.494h7.644c.066-.21.138-.42.2-.63.243-.857.464-1.73.652-2.609h-7.5C356.534,151.377,356.1,152.411,355.766,153.494Z" transform="translate(-329.812 -104.37)" fill="#ff822e"/>
          <path id="Path_2489" data-name="Path 2489" d="M355.29,154.68h7.633c.127-.243.26-.486.387-.729.4-.818.774-1.658,1.117-2.509H356.9C356.445,152.569,355.843,153.608,355.29,154.68Z" transform="translate(-331.966 -99.001)" fill="#ff822e"/>
          <path id="Path_2490" data-name="Path 2490" d="M354.524,155.866h7.616c.337-.426.68-.84,1.023-1.266.47-.641.912-1.3,1.343-1.973h-7.539A39.712,39.712,0,0,1,354.524,155.866Z" transform="translate(-335.434 -93.632)" fill="#ff822e"/>
          <path id="Path_2491" data-name="Path 2491" d="M353.332,157.056h7.616c.5-.392.995-.785,1.492-1.183.757-.658,1.5-1.349,2.205-2.062H357.2A39.543,39.543,0,0,1,353.332,157.056Z" transform="translate(-340.83 -88.268)" fill="#ff822e"/>
          <path id="Path_2492" data-name="Path 2492" d="M351.07,158.242h7.76A38.248,38.248,0,0,0,366.3,155h-7.716A38.974,38.974,0,0,1,351.07,158.242Z" transform="translate(-351.07 -82.899)" fill="#ff822e"/>
        </g>
        <path id="Path_2493" data-name="Path 2493" d="M381.413,141.585a39.706,39.706,0,1,0,39.706,39.706A39.7,39.7,0,0,0,381.413,141.585Zm0,75.835a36.13,36.13,0,1,1,36.135-36.13A36.128,36.128,0,0,1,381.413,217.42Z" transform="translate(-341.707 -141.584)" fill="#fff466"/>
        <path id="Path_2494" data-name="Path 2494" d="M341.708,181.291a39.584,39.584,0,0,0,11.678,28.121l2.526-2.531A36.125,36.125,0,1,1,407,155.795l2.526-2.531-.006-.005a39.681,39.681,0,0,0-5.228-4.328c-.232-.166-.42-.381-.652-.536a39.569,39.569,0,0,0-5.709-3.112c-.365-.166-.68-.409-1.045-.569a40.458,40.458,0,0,0-5.1-1.586c-.807-.216-1.548-.564-2.371-.735a40.122,40.122,0,0,0-6.522-.658c-.5-.022-.978-.149-1.481-.149A39.7,39.7,0,0,0,341.708,181.291Z" transform="translate(-341.702 -141.584)" fill="#fff466" opacity="0.6" style="mix-blend-mode: screen;isolation: isolate"/>
        <g id="Group_336" data-name="Group 336" transform="translate(20.317 20.318)" opacity="0.5" style="mix-blend-mode: screen;isolation: isolate">
          <path id="Path_2495" data-name="Path 2495" d="M354.409,157.144a36.27,36.27,0,0,1-6.378-2.565l-2.647,2.642a39.719,39.719,0,0,0,6.162,2.786Z" transform="translate(-345.383 -103.079)" fill="#fff466"/>
          <path id="Path_2496" data-name="Path 2496" d="M357.343,145.261,354.7,147.9a36.061,36.061,0,0,1,2.565,6.384l2.863-2.863A39.194,39.194,0,0,0,357.343,145.261Z" transform="translate(-303.201 -145.261)" fill="#fff466"/>
        </g>
      </g>
      <g id="Group_339" data-name="Group 339" transform="translate(25.899 17.511)">
        <g id="Group_338" data-name="Group 338">
          <path id="Path_2497" data-name="Path 2497" d="M372.066,174.151h-12.69v.238a8.391,8.391,0,0,0,2,6.019,7.3,7.3,0,0,0,5.555,2.106,22.426,22.426,0,0,0,3.366-.249,18.848,18.848,0,0,0,3.162-.763l.619,6.732a30.356,30.356,0,0,1-3.5.685,29.74,29.74,0,0,1-3.648.238q-7.254,0-11.734-4.007a13.689,13.689,0,0,1-4.471-10.761v-.238h-4.333v-4.532h4.333v-4.444h-4.333v-4.532h4.333v-.392q0-7.047,4.46-11.275t11.7-4.223a24.362,24.362,0,0,1,3.482.243c1.133.155,2.371.387,3.714.674l-.619,6.787a26.273,26.273,0,0,0-3.25-.752,20.046,20.046,0,0,0-3.327-.287,6.863,6.863,0,0,0-5.5,2.349,9.582,9.582,0,0,0-2,6.428v.448h12.69v4.532h-12.69v4.444h12.69Z" transform="translate(-346.393 -144.753)" fill="#ff9831"/>
        </g>
        <path id="Path_2498" data-name="Path 2498" d="M353.634,148.3h-2.206l-.656-2.63,2.451.245Z" transform="translate(-326.57 -140.595)" fill="#ff9831"/>
        <path id="Path_2499" data-name="Path 2499" d="M353.935,151.4h-2.206l-1.024,2.761h2.7Z" transform="translate(-326.871 -114.653)" fill="#ff9831"/>
      </g>
      <g id="Group_340" data-name="Group 340" transform="translate(23.694 17.511)">
        <path id="Path_2500" data-name="Path 2500" d="M371.667,174.151h-12.69v.238a8.391,8.391,0,0,0,2,6.019,7.3,7.3,0,0,0,5.555,2.106,22.428,22.428,0,0,0,3.366-.249,18.84,18.84,0,0,0,3.161-.763l.619,6.732a30.348,30.348,0,0,1-3.5.685,29.735,29.735,0,0,1-3.648.238q-7.254,0-11.734-4.007a13.689,13.689,0,0,1-4.471-10.761v-.238h-4.333v-4.532h4.333v-4.444h-4.333v-4.532h4.333v-.392q0-7.047,4.46-11.275c2.963-2.813,6.87-4.223,11.7-4.223a24.361,24.361,0,0,1,3.482.243c1.133.155,2.371.387,3.714.674l-.619,6.787a26.264,26.264,0,0,0-3.25-.752,20.051,20.051,0,0,0-3.327-.287,6.863,6.863,0,0,0-5.5,2.349,9.582,9.582,0,0,0-2,6.428v.448h12.69v4.532h-12.69v4.444h12.69Z" transform="translate(-345.994 -144.753)" fill="#fff466"/>
      </g>
      <g id="Group_341" data-name="Group 341" transform="translate(23.694 17.511)" opacity="0.5" style="mix-blend-mode: screen;isolation: isolate">
        <path id="Path_2501" data-name="Path 2501" d="M358.977,169.619v-4.444h6.041l4.532-4.532H358.977V160.2a9.582,9.582,0,0,1,2-6.428,6.863,6.863,0,0,1,5.5-2.349,20.051,20.051,0,0,1,3.327.287,26.264,26.264,0,0,1,3.25.752l.619-6.787c-1.343-.287-2.581-.52-3.714-.674a24.361,24.361,0,0,0-3.482-.243c-4.825,0-8.733,1.409-11.7,4.223q-4.469,4.228-4.46,11.275v.392h-4.333v4.532h4.333v4.444h-4.333v4.532h4.333v.238A16.606,16.606,0,0,0,351,179.2l9.573-9.578Z" transform="translate(-345.994 -144.753)" fill="#fff466"/>
        <path id="Path_2502" data-name="Path 2502" d="M353.646,153.079v-3.672l-3.672,3.672Z" transform="translate(-327.975 -123.68)" fill="#fff466"/>
        <path id="Path_2503" data-name="Path 2503" d="M361.686,152.758a22.428,22.428,0,0,1-3.366.249,7.469,7.469,0,0,1-5.162-1.736l-5.35,5.35a16.476,16.476,0,0,0,8.119,2.9l7-7C362.521,152.6,362.112,152.691,361.686,152.758Z" transform="translate(-337.782 -115.246)" fill="#fff466"/>
      </g>
    </g>
    <g id="Group_343" data-name="Group 343" transform="translate(372.751 176.922)">
      <circle id="Ellipse_86" data-name="Ellipse 86" cx="52.625" cy="52.625" r="52.625" transform="translate(3.849 107.73) rotate(-80.755)" fill="#ffad33"/>
      <path id="Path_2504" data-name="Path 2504" d="M368.08,159.993s10.767-3.294,10.446-12.5c-.415-11.933-16.1-11.308-16.1-11.308h-.663V125.1h-5.588v11.087h-6.3V125.1h-5.588v11.087h-13.9v6h8.224V181.4h-8.4v6.511h14.072v11.242h5.588V187.916h6.3v11.242h5.588V187.916c3.493,0,18.808-.116,20.173-13.005C383.511,160.027,368.08,159.993,368.08,159.993Zm-18.5-15.415h10.1c1.012,0,6.422.426,6.422,6.168s-5.2,6.505-6.422,6.505h-10.1ZM361.2,180.117H349.581v-14.58H361.2c1.05,0,7.39.492,7.39,7.1S362.155,180.117,361.2,180.117Z" transform="translate(-291.891 -97.881)" fill="#fff"/>
      <path id="Path_2505" data-name="Path 2505" d="M387.531,248.663a64.245,64.245,0,1,1,64.245-64.245A64.322,64.322,0,0,1,387.531,248.663Zm0-126.252a62,62,0,1,0,62.007,62.007A62.077,62.077,0,0,0,387.531,122.411Z" transform="translate(-323.285 -120.172)" fill="#ffad33"/>
    </g>
    <g id="Group_344" data-name="Group 344" transform="translate(314.801 118.955)">
      <path id="Path_2506" data-name="Path 2506" d="M478.409,286.154l-2.581-1.078c1.061-2.559,2.034-5.168,2.9-7.771l2.653.879C480.5,280.854,479.5,283.529,478.409,286.154Zm5.323-16.144-2.714-.669c.658-2.664,1.232-5.394,1.7-8.125l2.752.481C484.992,264.489,484.406,267.285,483.731,270.01Zm2.891-16.736L483.836,253c.265-2.708.442-5.494.525-8.285l2.8.083C487.075,247.654,486.9,250.506,486.622,253.275ZM484.3,236.417c-.111-2.719-.326-5.5-.625-8.268l2.775-.31c.315,2.835.531,5.682.647,8.467Zm-1.813-16.481c-.481-2.681-1.061-5.411-1.73-8.119l2.719-.674c.68,2.769,1.277,5.56,1.768,8.3Zm-4-16.106c-.846-2.653-1.785-5.284-2.78-7.821l2.6-1.023c1.022,2.592,1.979,5.284,2.847,7.992Zm-6.069-15.448c-1.161-2.476-2.426-4.969-3.758-7.4l2.449-1.349c1.371,2.487,2.658,5.03,3.847,7.561Zm-7.986-14.547c-1.465-2.31-3.04-4.621-4.665-6.87l2.26-1.647c1.669,2.3,3.272,4.659,4.77,7.014Zm-9.755-13.442c-1.752-2.111-3.593-4.211-5.494-6.24l2.045-1.912c1.935,2.073,3.825,4.217,5.6,6.373Zm-11.352-12.132c-1.984-1.879-4.068-3.736-6.2-5.527l1.791-2.144c2.183,1.824,4.311,3.72,6.334,5.638ZM430.584,137.6c-2.211-1.625-4.521-3.211-6.848-4.715l1.52-2.354c2.377,1.537,4.731,3.156,6.986,4.82Zm-13.983-9c-2.41-1.343-4.9-2.625-7.384-3.814l1.2-2.526c2.542,1.21,5.079,2.526,7.544,3.9Zm-14.995-7.141c-2.542-1.017-5.173-1.973-7.815-2.835l.879-2.664c2.692.884,5.378,1.863,7.976,2.9Zm-15.785-5.151c-2.669-.685-5.394-1.282-8.114-1.791l.514-2.752c2.769.52,5.566,1.133,8.29,1.829Zm-56.917-.8-.636-2.725c2.531-.591,5.107-1.111,7.671-1.536l.464,2.763C333.9,114.421,331.375,114.924,328.9,115.5Zm40.579-2.227c-2.741-.321-5.522-.547-8.274-.685l.133-2.791c2.813.133,5.665.365,8.467.691Zm-24.855-.321-.26-2.791c2.808-.254,5.659-.42,8.484-.481l.055,2.8C350.156,112.541,347.365,112.7,344.629,112.956Z" transform="translate(-242.772 -109.684)" fill="#ffad33"/>
      <path id="Path_2507" data-name="Path 2507" d="M447.106,298.454l-.055-2.8c2.747-.055,5.533-.216,8.285-.47l.254,2.791C452.771,298.227,449.924,298.393,447.106,298.454Zm-8.49-.116c-2.819-.133-5.665-.37-8.473-.7l.332-2.78c2.736.315,5.521.547,8.268.68Zm25.4-1.448-.459-2.763c2.52-.415,5.041-.917,7.489-1.5l.647,2.725C469.18,295.945,466.594,296.464,464.018,296.89Zm-42.27-.52c-2.774-.514-5.566-1.133-8.29-1.824l.685-2.714c2.67.68,5.4,1.282,8.119,1.785Zm-16.454-4.195c-2.7-.879-5.383-1.857-7.981-2.9l1.039-2.6c2.543,1.017,5.173,1.968,7.815,2.83Zm-15.752-6.3c-2.542-1.21-5.085-2.52-7.55-3.9l1.371-2.448c2.41,1.349,4.891,2.631,7.379,3.819Zm-14.829-8.268c-2.382-1.531-4.731-3.15-6.992-4.814l1.664-2.255c2.211,1.625,4.516,3.217,6.848,4.72Zm-13.674-10.07c-2.183-1.824-4.306-3.72-6.329-5.637l1.923-2.034c1.984,1.879,4.068,3.742,6.2,5.533Zm-12.3-11.645c-1.923-2.056-3.808-4.2-5.6-6.373l2.156-1.78c1.763,2.122,3.609,4.223,5.494,6.24Zm-10.811-13.082c-1.664-2.3-3.267-4.659-4.764-7.014l2.36-1.5c1.465,2.31,3.04,4.62,4.67,6.87Zm-9.081-14.315c-1.365-2.482-2.659-5.024-3.841-7.561l2.537-1.183c1.155,2.476,2.426,4.963,3.753,7.4Zm-7.2-15.348c-1.023-2.592-1.979-5.284-2.841-7.992l2.669-.857c.846,2.653,1.78,5.289,2.775,7.826Zm-5.162-16.155c-.674-2.764-1.271-5.56-1.763-8.3l2.752-.492c.481,2.681,1.061,5.411,1.736,8.119Zm-2.973-16.7c-.31-2.835-.531-5.682-.647-8.467l2.8-.111c.111,2.719.321,5.5.625,8.268Zm2.095-16.879-2.8-.083c.083-2.852.265-5.7.536-8.473l2.791.271C315.857,157.837,315.685,160.623,315.6,163.414Zm1.642-16.5-2.758-.481c.481-2.791,1.067-5.588,1.746-8.312l2.708.669C318.289,141.455,317.714,144.185,317.244,146.916Zm4-16.094-2.658-.873c.873-2.67,1.879-5.345,2.968-7.97l2.581,1.078C323.069,125.615,322.1,128.224,321.24,130.821Z" transform="translate(-312.8 -54.03)" fill="#ffc024"/>
    </g>
    <g id="Group_345" data-name="Group 345" transform="translate(338.016 154.236)">
      <path id="Path_2508" data-name="Path 2508" d="M367.1,116.068l-18.471,14.111,23.133,10.534Z" transform="translate(-173.806 -116.068)" fill="#ffad33"/>
      <path id="Path_2509" data-name="Path 2509" d="M321.663,167.709l18.47-14.111L317,143.065Z" transform="translate(-317 6.149)" fill="#ffad33"/>
    </g>
    <g id="Group_351" data-name="Group 351" transform="translate(312.358 107.636)">
      <path id="Path_2510" data-name="Path 2510" d="M393.159,147.342a39.747,39.747,0,0,0-38.628-39.706H345.3l.509.774a39.671,39.671,0,0,0,0,77.869s-.542.669,0,.741c3.211.127,8.727-.077,8.727-.077A39.65,39.65,0,0,0,393.159,147.342Z" transform="translate(-306.093 -107.636)" fill="#ff9831"/>
      <circle id="Ellipse_87" data-name="Ellipse 87" cx="39.707" cy="39.707" r="39.707" transform="translate(0.006 0.001)" fill="#ffad33"/>
      <path id="Path_2511" data-name="Path 2511" d="M352.617,107.636a39.709,39.709,0,1,0,39.6,39.816A39.707,39.707,0,0,0,352.617,107.636Zm-.2,75.841a36.133,36.133,0,1,1,36.224-36.036A36.129,36.129,0,0,1,352.418,183.477Z" transform="translate(-310.33 -107.636)" fill="#ff9831"/>
      <g id="Group_346" data-name="Group 346" transform="translate(51.754 2.04)">
        <path id="Path_2512" data-name="Path 2512" d="M329.725,108h-7.986a39.046,39.046,0,0,1,7.467,3.239h7.815A36.916,36.916,0,0,0,329.725,108Z" transform="translate(-321.65 -108.005)" fill="#ff822e"/>
        <path id="Path_2513" data-name="Path 2513" d="M323.987,109.191a39.206,39.206,0,0,1,3.847,3.239h7.45q-1.069-1.069-2.211-2.056c-.492-.4-.989-.8-1.492-1.183Z" transform="translate(-311.469 -102.636)" fill="#ff822e"/>
        <path id="Path_2514" data-name="Path 2514" d="M325.178,110.376c.84,1.061,1.691,2.1,2.426,3.244h7.544q-.647-1.011-1.348-1.979c-.337-.42-.68-.84-1.017-1.266Z" transform="translate(-306.076 -97.272)" fill="#ff822e"/>
        <path id="Path_2515" data-name="Path 2515" d="M325.942,111.562c.553,1.078,1.15,2.117,1.6,3.244h7.528c-.343-.851-.707-1.686-1.105-2.5-.133-.243-.265-.492-.4-.741Z" transform="translate(-302.618 -91.903)" fill="#ff822e"/>
        <path id="Path_2516" data-name="Path 2516" d="M326.418,112.748c.326,1.083.768,2.122,1.006,3.244h7.489c-.182-.879-.4-1.747-.647-2.6-.072-.216-.138-.426-.2-.641Z" transform="translate(-300.463 -86.534)" fill="#ff822e"/>
        <path id="Path_2517" data-name="Path 2517" d="M326.668,113.934c.133,1.078.282,2.144.326,3.244H334.6c-.028-.674-.072-1.349-.133-2.012-.044-.409-.094-.824-.149-1.233Z" transform="translate(-299.332 -81.165)" fill="#ff822e"/>
        <path id="Path_2518" data-name="Path 2518" d="M326.668,118.364h7.649c.055-.415.105-.824.149-1.238q.091-.995.133-2.006h-7.605C326.95,116.22,326.807,117.287,326.668,118.364Z" transform="translate(-299.332 -75.796)" fill="#ff822e"/>
        <path id="Path_2519" data-name="Path 2519" d="M326.418,119.545h7.644c.066-.21.133-.42.2-.63.243-.857.464-1.724.647-2.609h-7.495C327.181,117.428,326.744,118.462,326.418,119.545Z" transform="translate(-300.463 -70.427)" fill="#ff822e"/>
        <path id="Path_2520" data-name="Path 2520" d="M325.941,120.731h7.633c.127-.243.26-.486.392-.724q.6-1.235,1.111-2.515h-7.528C327.1,118.619,326.494,119.659,325.941,120.731Z" transform="translate(-302.623 -65.058)" fill="#ff822e"/>
        <path id="Path_2521" data-name="Path 2521" d="M325.176,121.917h7.616c.337-.42.68-.84,1.017-1.26.47-.647.917-1.3,1.348-1.979h-7.544A39.659,39.659,0,0,1,325.176,121.917Z" transform="translate(-306.086 -59.689)" fill="#ff822e"/>
        <path id="Path_2522" data-name="Path 2522" d="M323.984,123.1h7.611c.5-.387,1-.785,1.492-1.183q1.144-.987,2.211-2.056h-7.445A40.251,40.251,0,0,1,323.984,123.1Z" transform="translate(-311.482 -54.32)" fill="#ff822e"/>
        <path id="Path_2523" data-name="Path 2523" d="M321.722,124.289h7.755a38.46,38.46,0,0,0,7.472-3.239h-7.721A39.242,39.242,0,0,1,321.722,124.289Z" transform="translate(-321.722 -48.951)" fill="#ff822e"/>
      </g>
      <path id="Path_2524" data-name="Path 2524" d="M352.069,107.636a39.708,39.708,0,1,0,39.706,39.706A39.711,39.711,0,0,0,352.069,107.636Zm0,75.841a36.133,36.133,0,1,1,36.13-36.135A36.134,36.134,0,0,1,352.069,183.477Z" transform="translate(-312.358 -107.636)" fill="#fff466"/>
      <g id="Group_347" data-name="Group 347" transform="translate(24.613 10.96)">
        <path id="Path_2525" data-name="Path 2525" d="M338.211,149.07a5.591,5.591,0,0,0-1.409-3.985,13.889,13.889,0,0,0-5.052-2.88q-6.831-2.3-10.131-5.35t-3.289-8.589a11.264,11.264,0,0,1,3.289-8.362,14.41,14.41,0,0,1,8.948-3.814v-6.472h4.814v6.561a13.34,13.34,0,0,1,8.517,4.245,12.808,12.808,0,0,1,2.99,9.075l-.055.16h-8.622a7.642,7.642,0,0,0-1.487-5.063,6.126,6.126,0,0,0-8.3-.293,5.914,5.914,0,0,0-1.277,3.99,5.144,5.144,0,0,0,1.343,3.725,16.792,16.792,0,0,0,5.162,2.99q6.7,2.18,10.031,5.328A11.409,11.409,0,0,1,347.01,149a11.119,11.119,0,0,1-3.277,8.417,14.646,14.646,0,0,1-8.959,3.736v5.958h-4.814v-5.958a16.007,16.007,0,0,1-9.534-3.858q-3.73-3.349-3.609-9.81l.094-.177h8.583c0,2.576.63,4.422,1.879,5.516a7.222,7.222,0,0,0,4.919,1.647,6.087,6.087,0,0,0,4.444-1.454A5.277,5.277,0,0,0,338.211,149.07Z" transform="translate(-316.812 -109.619)" fill="#ff9831"/>
      </g>
      <g id="Group_348" data-name="Group 348" transform="translate(22.59 10.96)">
        <path id="Path_2526" data-name="Path 2526" d="M337.845,149.07a5.591,5.591,0,0,0-1.409-3.985,13.886,13.886,0,0,0-5.052-2.88q-6.831-2.3-10.131-5.35t-3.289-8.589a11.263,11.263,0,0,1,3.289-8.362,14.409,14.409,0,0,1,8.948-3.814v-6.472h4.814v6.561a13.34,13.34,0,0,1,8.517,4.245,12.809,12.809,0,0,1,2.99,9.075l-.055.16h-8.622a7.642,7.642,0,0,0-1.487-5.063,6.126,6.126,0,0,0-8.3-.293,5.914,5.914,0,0,0-1.277,3.99,5.143,5.143,0,0,0,1.343,3.725,16.792,16.792,0,0,0,5.162,2.99q6.7,2.18,10.026,5.328A11.412,11.412,0,0,1,346.644,149a11.119,11.119,0,0,1-3.277,8.417,14.646,14.646,0,0,1-8.959,3.736v5.958h-4.814v-5.958a16.023,16.023,0,0,1-9.54-3.858c-2.482-2.233-3.692-5.5-3.6-9.81l.088-.177h8.589c0,2.576.625,4.422,1.879,5.516a7.216,7.216,0,0,0,4.914,1.647,6.093,6.093,0,0,0,4.449-1.454A5.277,5.277,0,0,0,337.845,149.07Z" transform="translate(-316.445 -109.619)" fill="#fff466"/>
      </g>
      <path id="Path_2527" data-name="Path 2527" d="M312.359,147.342a39.575,39.575,0,0,0,11.678,28.121l2.531-2.526a36.125,36.125,0,1,1,51.086-51.091l2.531-2.526-.011-.011a40.108,40.108,0,0,0-5.228-4.328c-.227-.16-.414-.376-.647-.536a40.174,40.174,0,0,0-5.715-3.112c-.359-.166-.674-.409-1.045-.564a39.313,39.313,0,0,0-5.1-1.592c-.8-.216-1.548-.564-2.366-.73a39.584,39.584,0,0,0-6.527-.663c-.5-.017-.973-.149-1.481-.149A39.706,39.706,0,0,0,312.359,147.342Z" transform="translate(-312.354 -107.636)" fill="#fff466" opacity="0.6" style="mix-blend-mode: screen;isolation: isolate"/>
      <g id="Group_349" data-name="Group 349" transform="translate(22.591 10.96)" opacity="0.6" style="mix-blend-mode: screen;isolation: isolate">
        <path id="Path_2528" data-name="Path 2528" d="M333.765,116.179v-6.561h-4.809v6.472a14.379,14.379,0,0,0-8.948,3.814,11.268,11.268,0,0,0-3.289,8.368q0,5.521,3.289,8.583a25.343,25.343,0,0,0,7.539,4.427l5.77-5.842c-.436-.155-.812-.282-1.271-.431a16.791,16.791,0,0,1-5.162-2.99,5.148,5.148,0,0,1-1.343-3.731,5.909,5.909,0,0,1,1.277-3.985,6.126,6.126,0,0,1,8.3.293,7.642,7.642,0,0,1,1.487,5.063h2.5l5.383-5.389a11.278,11.278,0,0,0-2.2-3.847A13.34,13.34,0,0,0,333.765,116.179Z" transform="translate(-315.203 -109.619)" fill="#fff466"/>
        <path id="Path_2529" data-name="Path 2529" d="M316.537,116.439l-.088.177a15.454,15.454,0,0,0,.779,5.284l5.461-5.461Z" transform="translate(-316.445 -78.745)" fill="#fff466"/>
      </g>
      <g id="Group_350" data-name="Group 350" transform="translate(20.317 20.317)" opacity="0.5" style="mix-blend-mode: screen;isolation: isolate">
        <path id="Path_2530" data-name="Path 2530" d="M325.065,123.195a35.911,35.911,0,0,1-6.384-2.565l-2.647,2.647a39.415,39.415,0,0,0,6.163,2.78Z" transform="translate(-316.034 -69.13)" fill="#fff466"/>
        <path id="Path_2531" data-name="Path 2531" d="M328,111.312l-2.647,2.647a36.015,36.015,0,0,1,2.565,6.378l2.868-2.863A39.71,39.71,0,0,0,328,111.312Z" transform="translate(-273.852 -111.312)" fill="#fff466"/>
      </g>
      <path id="Path_2532" data-name="Path 2532" d="M322.455,138.762l17-17.018a11.255,11.255,0,0,0-2.46-6.422l-6.433,6.455a8.3,8.3,0,0,1,.144,1.476,5.277,5.277,0,0,1-1.476,3.952,6.092,6.092,0,0,1-4.449,1.454c-.348,0-.7-.044-1.028-.077l-5.731,5.731a18.377,18.377,0,0,0,4.433,1.028Z" transform="translate(-286.717 -72.842)" fill="#fff466" opacity="0.5" style="mix-blend-mode: screen;isolation: isolate"/>
    </g>
  </g>
</svg>
