<svg xmlns="http://www.w3.org/2000/svg" width="136.178" height="27.236" viewBox="0 0 136.178 27.236">
  <g id="binance-exchange-seeklogo.com_" transform="translate(-0.016)">
    <path id="Path_5877" data-name="Path 5877" d="M27.476,11.445l5.292-5.292,5.292,5.292,3.076-3.076L32.769,0,24.4,8.369Z" transform="translate(-19.138)" fill="#bfbfbf"/>
    <rect id="Rectangle_239" data-name="Rectangle 239" width="4.346" height="4.346" transform="translate(0.016 13.619) rotate(-45)" fill="#bfbfbf"/>
    <path id="Path_5878" data-name="Path 5878" d="M27.476,73.4l5.292,5.292L38.061,73.4l3.076,3.076h0l-8.369,8.369L24.4,76.476h0Z" transform="translate(-19.138 -57.609)" fill="#bfbfbf"/>
    <rect id="Rectangle_240" data-name="Rectangle 240" width="4.346" height="4.346" transform="translate(21.098 13.62) rotate(-45)" fill="#bfbfbf"/>
    <path id="Path_5879" data-name="Path 5879" d="M55.039,51.919h0L51.919,48.8l-2.3,2.3h0l-.28.258-.538.559h0l3.119,3.119,3.119-3.119Z" transform="translate(-38.289 -38.301)" fill="#bfbfbf"/>
    <path id="Path_5880" data-name="Path 5880" d="M148.822,30.7h6.691a5.138,5.138,0,0,1,3.765,1.269,3.325,3.325,0,0,1,.99,2.453v.043a3.471,3.471,0,0,1-.151,1.1,3.532,3.532,0,0,1-.409.861,2.97,2.97,0,0,1-.6.667,3.366,3.366,0,0,1-.731.495,5.109,5.109,0,0,1,1.979,1.291,3.306,3.306,0,0,1,.71,2.259v.043a3.718,3.718,0,0,1-.387,1.743,3.574,3.574,0,0,1-1.1,1.248,5.585,5.585,0,0,1-1.7.753,8.825,8.825,0,0,1-2.216.258H148.8V30.7Zm6.024,5.83a3.348,3.348,0,0,0,1.678-.366A1.246,1.246,0,0,0,157.147,35V34.96a1.255,1.255,0,0,0-.538-1.1,2.658,2.658,0,0,0-1.549-.387h-3.141V36.53Zm.861,5.83a3.044,3.044,0,0,0,1.657-.387,1.287,1.287,0,0,0,.6-1.183v-.043a1.377,1.377,0,0,0-.559-1.14,2.982,2.982,0,0,0-1.786-.43h-3.679V42.36Z" transform="translate(-116.776 -24.095)" fill="#bfbfbf"/>
    <path id="Path_5881" data-name="Path 5881" d="M224.4,30.7h3.184V45.136H224.4Z" transform="translate(-176.111 -24.095)" fill="#bfbfbf"/>
    <path id="Path_5882" data-name="Path 5882" d="M261.522,30.7h2.926l6.755,8.885V30.7h3.141V45.136h-2.711l-6.992-9.186v9.186H261.5V30.7Z" transform="translate(-205.23 -24.095)" fill="#bfbfbf"/>
    <path id="Path_5883" data-name="Path 5883" d="M343.374,30.2H346.3l6.2,14.543h-3.313l-1.312-3.249h-6.11l-1.312,3.249H337.2Zm3.356,8.5-1.915-4.69L342.9,38.7Z" transform="translate(-264.644 -23.703)" fill="#bfbfbf"/>
    <path id="Path_5884" data-name="Path 5884" d="M424.3,30.7h2.926L434,39.585V30.7h3.141V45.136h-2.711l-6.992-9.186v9.186H424.3Z" transform="translate(-333.006 -24.095)" fill="#bfbfbf"/>
    <path id="Path_5885" data-name="Path 5885" d="M510.1,44.53a7.428,7.428,0,0,1-2.947-.581,7.129,7.129,0,0,1-2.345-1.57,7.058,7.058,0,0,1-1.549-2.366,7.673,7.673,0,0,1-.559-2.9v-.043a7.673,7.673,0,0,1,.559-2.9,7.293,7.293,0,0,1,3.915-3.98,7.809,7.809,0,0,1,3.055-.581,9.838,9.838,0,0,1,1.85.172,7.924,7.924,0,0,1,1.527.452,6.634,6.634,0,0,1,1.269.71,8.841,8.841,0,0,1,1.076.9l-2.022,2.323a7.825,7.825,0,0,0-1.721-1.2,4.532,4.532,0,0,0-1.979-.43,3.973,3.973,0,0,0-1.678.344,4.017,4.017,0,0,0-1.334.968,4.216,4.216,0,0,0-.861,1.441,4.64,4.64,0,0,0-.3,1.743v.043a5.328,5.328,0,0,0,.3,1.764,4.585,4.585,0,0,0,.861,1.441,4.308,4.308,0,0,0,1.312.99,4.012,4.012,0,0,0,1.7.366,4.4,4.4,0,0,0,2.087-.452,7.307,7.307,0,0,0,1.7-1.248l2.022,2.044a9.061,9.061,0,0,1-1.162,1.076,7.456,7.456,0,0,1-1.312.818,5.963,5.963,0,0,1-1.549.516A12.809,12.809,0,0,1,510.1,44.53Z" transform="translate(-394.539 -23.232)" fill="#bfbfbf"/>
    <path id="Path_5886" data-name="Path 5886" d="M582,30.7h10.864v2.818h-7.745v2.926h6.82v2.818h-6.82V42.3h7.852v2.818H582Z" transform="translate(-456.779 -24.095)" fill="#bfbfbf"/>
  </g>
</svg>
