<svg xmlns="http://www.w3.org/2000/svg" width="160.1" height="24.7" viewBox="0 0 160.1 24.7">
  <g id="PancakeSwap_CAKE_" data-name="PancakeSwap (CAKE)" transform="translate(-13 -46.5)">
    <path id="Path_5934" data-name="Path 5934" d="M44,65.7a1.549,1.549,0,0,1-.8-.2,1.445,1.445,0,0,1-.2-.7V53.6a1.165,1.165,0,0,1,.2-.7.984.984,0,0,1,.8-.3h4.7a6.36,6.36,0,0,1,4,1.1A4.592,4.592,0,0,1,54,57.1a4.237,4.237,0,0,1-1.3,3.4,6.164,6.164,0,0,1-4,1.1H46.9v3.1a1.165,1.165,0,0,1-.2.7c-.2.2-.4.2-.8.2H44Zm4.4-6.9a1.594,1.594,0,0,0,1.2-.4,2.312,2.312,0,0,0,0-2.6,1.594,1.594,0,0,0-1.2-.4H46.9v3.4Z" fill="#bfbfbf"/>
    <path id="Path_5935" data-name="Path 5935" d="M58.5,66a3.7,3.7,0,0,1-2.9-1.2,4.859,4.859,0,0,1-1.1-3.3,5.073,5.073,0,0,1,.7-2.8,5.535,5.535,0,0,1,2.1-1.9,7.83,7.83,0,0,1,3.1-.7,10.319,10.319,0,0,1,2.6.3,7.837,7.837,0,0,1,2.1.9V65a.46.46,0,0,1-.6.6h-2c-.1,0-.3,0-.3-.1l-.2-.2-.3-.6A4.455,4.455,0,0,1,58.5,66Zm1.4-2.6a1.594,1.594,0,0,0,1.2-.4,1.159,1.159,0,0,0,.4-1V59a2.388,2.388,0,0,0-.9-.2,1.865,1.865,0,0,0-1.6.7,2.986,2.986,0,0,0-.6,2C58.4,62.7,58.9,63.4,59.9,63.4Z" fill="#bfbfbf"/>
    <path id="Path_5936" data-name="Path 5936" d="M67.8,65.7a1.549,1.549,0,0,1-.8-.2.844.844,0,0,1-.2-.7V57a.46.46,0,0,1,.6-.6h2c.2,0,.3,0,.3.1.1,0,.1.1.2.2l.1.6a3.224,3.224,0,0,1,1.4-.8,6.013,6.013,0,0,1,2-.3,3.271,3.271,0,0,1,3.5,3.5v5.1a1.165,1.165,0,0,1-.2.7c-.1.2-.4.2-.8.2H74a1.549,1.549,0,0,1-.8-.2.844.844,0,0,1-.2-.7V59.9c0-.4-.1-.7-.3-.8a.984.984,0,0,0-.8-.3,1.222,1.222,0,0,0-.9.3,1.136,1.136,0,0,0-.3.8v4.8a1.165,1.165,0,0,1-.2.7c-.1.2-.4.2-.8.2H67.8Z" fill="#bfbfbf"/>
    <path id="Path_5937" data-name="Path 5937" d="M83.7,66a6.043,6.043,0,0,1-4.2-1.3A4.333,4.333,0,0,1,78,61.1a4.618,4.618,0,0,1,.7-2.6,4.508,4.508,0,0,1,1.9-1.7,7.306,7.306,0,0,1,3-.6,6.873,6.873,0,0,1,2.2.3,4.02,4.02,0,0,1,1.6.8c.1.1.2.2.2.3s-.1.2-.2.4l-.8,1.4q-.15.3-.3.3c-.1,0-.2-.1-.4-.2a4.671,4.671,0,0,0-1-.5,3.6,3.6,0,0,0-1.1-.2,2.271,2.271,0,0,0-1.6.6,2.708,2.708,0,0,0,0,3.4,2.111,2.111,0,0,0,1.6.6,3.6,3.6,0,0,0,1.1-.2,4.671,4.671,0,0,0,1-.5c.2-.1.3-.2.4-.2s.2.1.3.3l.9,1.5a.367.367,0,0,1,.1.3c0,.1-.1.2-.2.3a7.5,7.5,0,0,1-1.8.8A4.093,4.093,0,0,1,83.7,66Z" fill="#bfbfbf"/>
    <path id="Path_5938" data-name="Path 5938" d="M92.8,66a3.7,3.7,0,0,1-2.9-1.2,4.859,4.859,0,0,1-1.1-3.3,5.073,5.073,0,0,1,.7-2.8,5.535,5.535,0,0,1,2.1-1.9,7.83,7.83,0,0,1,3.1-.7,10.319,10.319,0,0,1,2.6.3,7.837,7.837,0,0,1,2.1.9V65a.46.46,0,0,1-.6.6h-2c-.1,0-.3,0-.3-.1l-.2-.2-.3-.6a3.805,3.805,0,0,1-1.3.9A3.576,3.576,0,0,1,92.8,66Zm1.5-2.6a1.594,1.594,0,0,0,1.2-.4,1.159,1.159,0,0,0,.4-1V59a2.388,2.388,0,0,0-.9-.2,1.865,1.865,0,0,0-1.6.7,2.986,2.986,0,0,0-.6,2C92.7,62.7,93.2,63.4,94.3,63.4Z" fill="#bfbfbf"/>
    <path id="Path_5939" data-name="Path 5939" d="M111.6,65a.4.4,0,0,1-.3.7h-3.4c-.1,0-.2-.1-.3-.2L105,61.9v2.8a1.165,1.165,0,0,1-.2.7c-.2.2-.4.2-.8.2h-1.9a1.549,1.549,0,0,1-.8-.2,1.445,1.445,0,0,1-.2-.7V53.6a1.166,1.166,0,0,1,.2-.7.984.984,0,0,1,.8-.3H104a.984.984,0,0,1,.8.3.844.844,0,0,1,.2.7V60l2.5-3.3c.1-.1.2-.2.3-.2s.2-.1.4-.1h3a.426.426,0,0,1,.3.7l-3.3,3.8Z" fill="#bfbfbf"/>
    <path id="Path_5940" data-name="Path 5940" d="M117.8,66a8.807,8.807,0,0,1-2.9-.5,5.264,5.264,0,0,1-2-1.6,4.406,4.406,0,0,1-.7-2.6,4.82,4.82,0,0,1,1.4-3.7,5.515,5.515,0,0,1,4-1.3,4.872,4.872,0,0,1,3.8,1.3,4.459,4.459,0,0,1,1.3,3.5c0,.6-.3,1-.8,1h-6a1.486,1.486,0,0,0,.6,1.3,3.361,3.361,0,0,0,1.9.4,4.888,4.888,0,0,0,1.3-.1c.4-.1.7-.3,1.1-.4a.774.774,0,0,1,.3-.1c.1,0,.2.1.3.2l.7,1.2a.367.367,0,0,1,.1.3c0,.1-.1.2-.2.3a7.5,7.5,0,0,1-1.8.8A19.2,19.2,0,0,0,117.8,66Zm1.5-6a1.246,1.246,0,0,0-.4-1.1,2.313,2.313,0,0,0-2.6,0,1.366,1.366,0,0,0-.4,1.1Z" fill="#bfbfbf"/>
    <path id="Path_5941" data-name="Path 5941" d="M129.4,66a15.526,15.526,0,0,1-3.1-.3,6.135,6.135,0,0,1-2.3-1,.536.536,0,0,1-.3-.4.367.367,0,0,1,.1-.3l.9-1.5c.1-.2.2-.2.3-.2a.367.367,0,0,1,.3.1,7.741,7.741,0,0,0,1.6.7,5.662,5.662,0,0,0,1.8.3,2.269,2.269,0,0,0,1.3-.3.975.975,0,0,0,.4-.9,1.05,1.05,0,0,0-.5-.9,8.1,8.1,0,0,0-1.8-.8,10.351,10.351,0,0,1-3-1.6,3.25,3.25,0,0,1-1.1-2.5,3.424,3.424,0,0,1,1.4-2.9,5.7,5.7,0,0,1,3.6-1,10.063,10.063,0,0,1,2.7.3,6.781,6.781,0,0,1,1.9.8c.2.2.3.3.3.5a.367.367,0,0,1-.1.3l-.9,1.5c-.1.2-.2.2-.3.2a.367.367,0,0,1-.3-.1,4.526,4.526,0,0,0-2.7-.7,2.269,2.269,0,0,0-1.3.3.975.975,0,0,0-.4.9,1.445,1.445,0,0,0,.2.7c.2.2.4.3.6.5.3.1.7.3,1.2.5l.4.1a11.174,11.174,0,0,1,2.2,1.1,3.25,3.25,0,0,1,1.3,1.3,3.424,3.424,0,0,1,.4,1.8,3.1,3.1,0,0,1-1.3,2.7A6.894,6.894,0,0,1,129.4,66Z" fill="#bfbfbf"/>
    <path id="Path_5942" data-name="Path 5942" d="M138.5,65.7c-.2,0-.3,0-.4-.1a.52.52,0,0,1-.2-.4l-2.5-8.3v-.2c0-.2.1-.3.4-.3h2.5c.2,0,.3,0,.4.1a.769.769,0,0,1,.2.3l1,4.4,1.3-3.5c.1-.2.1-.3.2-.3.1-.1.2-.1.4-.1H143c.2,0,.3,0,.4.1s.1.2.2.3l1.3,3.5,1.1-4.4c0-.1.1-.2.2-.3a.367.367,0,0,1,.3-.1h2.6c.3,0,.4.1.4.3v.2L147,65.2c-.1.2-.1.3-.2.4s-.2.1-.4.1h-1.9c-.2,0-.3,0-.4-.1a.52.52,0,0,1-.2-.4l-1.3-3.5-1.3,3.5c-.1.2-.1.3-.2.4s-.2.1-.4.1Z" fill="#bfbfbf"/>
    <path id="Path_5943" data-name="Path 5943" d="M154.1,66a3.7,3.7,0,0,1-2.9-1.2,4.859,4.859,0,0,1-1.1-3.3,5.073,5.073,0,0,1,.7-2.8,5.535,5.535,0,0,1,2.1-1.9,7.83,7.83,0,0,1,3.1-.7,10.319,10.319,0,0,1,2.6.3,7.837,7.837,0,0,1,2.1.9V65a.46.46,0,0,1-.6.6h-2a.367.367,0,0,1-.3-.1l-.2-.2-.3-.6a3.805,3.805,0,0,1-1.3.9A3.576,3.576,0,0,1,154.1,66Zm1.5-2.6a1.594,1.594,0,0,0,1.2-.4,1.159,1.159,0,0,0,.4-1V59a2.388,2.388,0,0,0-.9-.2,1.865,1.865,0,0,0-1.6.7,2.986,2.986,0,0,0-.6,2C154,62.7,154.5,63.4,155.6,63.4Z" fill="#bfbfbf"/>
    <path id="Path_5944" data-name="Path 5944" d="M163.4,69.6a1.549,1.549,0,0,1-.8-.2,1.445,1.445,0,0,1-.2-.7v-11a6.393,6.393,0,0,1,2.2-1,8.423,8.423,0,0,1,2.7-.4c3.9,0,5.8,1.6,5.8,4.9a5.219,5.219,0,0,1-1.2,3.6,4.459,4.459,0,0,1-3.5,1.3,5.019,5.019,0,0,1-1.2-.2,3,3,0,0,1-1-.4v3.2a1.166,1.166,0,0,1-.2.7c-.2.2-.4.2-.8.2Zm4.2-6.2a1.209,1.209,0,0,0,1.2-.6,2.861,2.861,0,0,0,.4-1.7,2.969,2.969,0,0,0-.5-1.8,2.07,2.07,0,0,0-1.5-.5,2.509,2.509,0,0,0-1,.2v3a1.367,1.367,0,0,0,1.4,1.4Z" fill="#bfbfbf"/>
    <path id="Path_5945" data-name="Path 5945" d="M17.5,50.4a3.28,3.28,0,1,1,6.5-.6v4h2.7v-4a3.28,3.28,0,1,1,6.5.6l-.9,4.7c3,1.3,5.3,3.6,5.3,6.5v1.7c0,2.4-1.6,4.4-3.8,5.7a16,16,0,0,1-8.5,2.2A16.005,16.005,0,0,1,16.8,69c-2.2-1.3-3.8-3.3-3.8-5.7V61.6c0-2.9,2.3-5.2,5.3-6.5Zm13.7,5.4,1-5.5a2.271,2.271,0,1,0-4.5-.4V55c-.3,0-.7-.1-1-.1H25.4A6.6,6.6,0,0,0,24,55c-.3,0-.7.1-1,.1V50a2.271,2.271,0,1,0-4.5.4l1,5.6c-3.2,1.2-5.4,3.4-5.4,5.9v1.7c0,3.8,5,6.9,11.2,6.9s11.2-3.1,11.2-6.9V61.9C36.6,59.2,34.4,57,31.2,55.8Z" fill="#bfbfbf" fill-rule="evenodd"/>
    <path id="Path_5946" data-name="Path 5946" d="M36.6,63.4c0,3.8-5,6.9-11.2,6.9s-11.2-3.1-11.2-6.9V61.7H36.7v1.7Z" fill="#bfbfbf"/>
    <path id="Path_5947" data-name="Path 5947" d="M18.5,50.2a2.271,2.271,0,1,1,4.5-.4V55a19.419,19.419,0,0,1,2.4-.2c.8,0,1.6.1,2.3.1V49.8a2.271,2.271,0,1,1,4.5.4l-1,5.5c3.3,1.2,5.5,3.4,5.5,5.9,0,3.8-5,6.9-11.2,6.9s-11.2-3.1-11.2-6.9c0-2.5,2.2-4.7,5.4-5.9Z" fill="#bfbfbf" fill-rule="evenodd"/>
    <path id="Path_5948" data-name="Path 5948" d="M22.3,61.2c0,1-.6,1.9-1.2,1.9s-1.2-.8-1.2-1.9c0-1,.6-1.9,1.2-1.9S22.3,60.1,22.3,61.2Z" fill="#fff"/>
    <path id="Path_5949" data-name="Path 5949" d="M30.9,61.2c0,1-.6,1.9-1.2,1.9-.7,0-1.2-.8-1.2-1.9,0-1,.6-1.9,1.2-1.9S30.9,60.1,30.9,61.2Z" fill="#fff"/>
  </g>
</svg>
