<svg xmlns="http://www.w3.org/2000/svg" width="136.352" height="25.475" viewBox="0 0 136.352 25.475">
  <g id="Solana-logo" transform="translate(0.035)">
    <path id="Path_5868" data-name="Path 5868" d="M683.924,111.287h5.139a1.314,1.314,0,0,1,0,2.628h-6.2a.39.39,0,0,0-.262.1l-1.869,1.613a.407.407,0,0,0,.262.716h7.755a.006.006,0,0,0,.006-.006.006.006,0,0,1,.006-.006c.1.006.193.012.3.012a3.744,3.744,0,0,0,.305-7.474.006.006,0,0,1-.006-.006c0-.006,0-.006-.006-.006h-5.531a1.314,1.314,0,0,1,0-2.628h6.185a.408.408,0,0,0,.274-.106l1.738-1.613a.41.41,0,0,0-.274-.71h-7.923a3.743,3.743,0,0,0,0,7.487Z" transform="translate(-637.772 -97.335)" fill="#bfbfbf"/>
    <path id="Path_5869" data-name="Path 5869" d="M1215.7,103.7a.405.405,0,0,0-.4.411v11.735a.409.409,0,0,0,.4.411h9.405a.426.426,0,0,0,.3-.131l1.177-1.264a.406.406,0,0,0-.3-.685h-8.209a.405.405,0,0,1-.4-.411v-9.654a.409.409,0,0,0-.4-.411Z" transform="translate(-1139.637 -97.241)" fill="#bfbfbf"/>
    <path id="Path_5870" data-name="Path 5870" d="M946.424,103.7h0a2.338,2.338,0,0,0-2.224,2.224h0v7.892h0v.1a2.32,2.32,0,0,0,2.224,2.323h8.533a2.333,2.333,0,0,0,2.224-2.323v-.1h0V105.93h0a2.323,2.323,0,0,0-2.217-2.224h-8.539Zm1.595,2.23h0a1.457,1.457,0,0,0-1.389,1.4h0V112.3h0v.062a1.46,1.46,0,0,0,1.389,1.464h5.35a1.46,1.46,0,0,0,1.389-1.464V112.3h0v-4.964h0a1.462,1.462,0,0,0-1.389-1.4h-5.35Z" transform="translate(-885.423 -97.241)" fill="#bfbfbf" fill-rule="evenodd"/>
    <path id="Path_5871" data-name="Path 5871" d="M1459.683,115.939a.41.41,0,0,0,.405.411h1.594a.405.405,0,0,0,.4-.411v-9.717h0v-.1a2.312,2.312,0,0,0-2.2-2.323h-8.29a2.312,2.312,0,0,0-2.3,2.329v.1h0v9.71a.41.41,0,0,0,.405.411h1.594a.405.405,0,0,0,.4-.411V111.9a.409.409,0,0,1,.4-.411h7.188a.406.406,0,0,1,.405.411v4.042Zm-8-6.683v-2.018a1.412,1.412,0,0,1,1.4-1.42h5.195a1.411,1.411,0,0,1,1.4,1.42v2.018a.409.409,0,0,1-.4.411h-7.188A.409.409,0,0,1,1451.686,109.256Z" transform="translate(-1359.062 -97.335)" fill="#bfbfbf" fill-rule="evenodd"/>
    <path id="Path_5872" data-name="Path 5872" d="M1992.4,116.251a.405.405,0,0,1-.4-.411V111.8a.409.409,0,0,0-.4-.411h-7.269a.405.405,0,0,0-.4.411v4.042a.409.409,0,0,1-.4.411H1981.9a.405.405,0,0,1-.4-.411v-9.71h0v-.1a2.329,2.329,0,0,1,2.323-2.329h8.384a2.333,2.333,0,0,1,2.224,2.323v.1h0v9.71a.409.409,0,0,1-.4.411H1992.4Zm-8.49-9.106v2.018a.409.409,0,0,0,.4.411h7.269a.405.405,0,0,0,.4-.411v-2.018a1.418,1.418,0,0,0-1.414-1.42h-5.251A1.414,1.414,0,0,0,1983.911,107.144Z" transform="translate(-1858.114 -97.241)" fill="#bfbfbf" fill-rule="evenodd"/>
    <path id="Path_5873" data-name="Path 5873" d="M1717.236,103.7a.387.387,0,0,1,.305.143l7.15,8.527a.4.4,0,0,0,.71-.268v-7.991a.409.409,0,0,1,.4-.411h1.595a.405.405,0,0,1,.4.411v11.735a.409.409,0,0,1-.4.411h-1.981a.013.013,0,0,1-.012-.012c0-.006,0-.006-.006-.012l-7.275-8.465a.4.4,0,0,0-.71.268v7.817a.409.409,0,0,1-.405.411H1715.4a.405.405,0,0,1-.4-.411V104.111a.409.409,0,0,1,.4-.411Z" transform="translate(-1608.213 -97.241)" fill="#bfbfbf"/>
    <path id="Path_5874" data-name="Path 5874" d="M5.249,307.511A1.056,1.056,0,0,1,6,307.2H31.938a.528.528,0,0,1,.374.9l-5.126,5.126a1.056,1.056,0,0,1-.747.311H.5a.528.528,0,0,1-.374-.9Z" transform="translate(0 -288.066)" fill="#bfbfbf"/>
    <path id="Path_5875" data-name="Path 5875" d="M5.249.311A1.056,1.056,0,0,1,6,0H31.938a.528.528,0,0,1,.374.9L27.186,6.029a1.056,1.056,0,0,1-.747.311H.5a.528.528,0,0,1-.374-.9Z" transform="translate(0 0)" fill="#bfbfbf"/>
    <path id="Path_5876" data-name="Path 5876" d="M27.186,152.911a1.056,1.056,0,0,0-.747-.311H.5a.528.528,0,0,0-.374.9l5.126,5.12a1.056,1.056,0,0,0,.747.311H31.938a.528.528,0,0,0,.374-.9Z" transform="translate(0 -143.095)" fill="#bfbfbf"/>
  </g>
</svg>
